<svg width="106" height="32" viewBox="0 0 106 32" fill="none" xmlns="http://www.w3.org/2000/svg">
<g clip-path="url(#clip0_2402_4761)">
<path fill-rule="evenodd" clip-rule="evenodd" d="M21.1165 0.709089C20.7191 0.520087 20.3097 0.36085 19.8899 0.232865C31.2671 3.04259 34.3971 15.3649 30.2481 22.9994C26.0992 30.6339 17.117 34.2502 9.3509 30.5193C1.58633 26.7883 0.196871 19.8861 0.0145971 16.2623C-0.167677 12.6385 1.38314 8.86741 3.20887 6.31366C3.71535 5.61867 4.27861 4.96832 4.89565 4.36858H4.86876C4.41158 3.80902 4.49375 2.98753 5.05253 2.52916C5.34088 2.89675 5.4589 3.36851 5.38121 3.82836C5.37528 3.84394 5.37013 3.85835 5.36519 3.87217C5.35645 3.89662 5.34839 3.91918 5.33788 3.94295C5.51418 3.78074 5.67703 3.63192 5.84287 3.49054C5.60681 3.29112 5.49924 2.9786 5.56498 2.67649C5.6098 2.31784 5.78311 1.98597 6.05353 1.74488C6.25672 1.95769 6.39268 2.22557 6.44647 2.51428C6.48083 2.70477 6.44796 2.90121 6.35234 3.07087C6.53462 2.928 6.70793 2.79704 6.87376 2.67203C6.6631 2.48749 6.55404 2.21515 6.57944 1.93686C6.57944 1.54397 6.7662 1.17341 7.08144 0.938273C7.27417 1.19722 7.40415 1.49784 7.45794 1.81482C7.47288 2.01127 7.41611 2.20622 7.29808 2.36248C7.36032 2.31988 7.41824 2.28003 7.47123 2.24358C7.60522 2.1514 7.70767 2.08091 7.7687 2.04252C7.76422 1.73 7.89868 1.43236 8.13474 1.22847C8.4709 1.05733 8.85039 0.999289 9.22241 1.05882C9.14322 1.39366 8.96842 1.69726 8.71742 1.93239C8.46493 2.11544 8.15118 2.19729 7.84041 2.16158C7.81894 2.17751 7.79632 2.19421 7.77257 2.21173C7.63436 2.31373 7.45809 2.44381 7.25027 2.61399C7.42656 2.52916 7.62229 2.49344 7.81651 2.50981C8.18853 2.59018 8.51871 2.80299 8.7473 3.10658C8.46493 3.29112 8.13325 3.39083 7.79559 3.39381C7.42656 3.41464 7.09488 3.16909 7.00972 2.81043C6.85104 2.9411 6.67738 3.0725 6.49086 3.21364C6.4285 3.26083 6.3647 3.30911 6.29954 3.35881C6.45426 3.27988 6.63006 3.24785 6.80355 3.2688C7.16361 3.36999 7.48184 3.57834 7.7194 3.86557C7.42357 4.04564 7.08443 4.14535 6.73781 4.15577C6.39269 4.13493 6.08491 3.93402 5.92803 3.62597C5.70094 3.8239 5.48878 4.02331 5.29157 4.22273C5.45741 4.10517 5.66658 4.06796 5.86379 4.11856C6.20294 4.23018 6.50175 4.43852 6.72436 4.71533C6.42854 4.8954 6.0879 4.98767 5.74128 4.98172C5.21239 4.97428 5.01965 4.64687 5.09734 4.41769C4.68947 4.83885 4.33389 5.30912 4.03807 5.81511C3.89585 6.07293 3.70558 6.36982 3.48414 6.71535C3.21474 7.13571 2.89921 7.62807 2.56792 8.20963C2.55314 8.23558 2.53758 8.26277 2.52131 8.2912C1.87325 9.42356 0.0936962 12.533 1.0425 18.5258C2.01512 24.6691 7.01421 29.4582 12.9889 30.6339C18.9621 31.808 27.1659 28.6322 29.8821 20.8668C32.5983 13.1013 29.1664 6.62172 23.9567 3.15272C18.747 -0.316283 12.3091 1.13471 12.3091 1.13471C16.113 -0.0394766 18.6095 0.676348 18.6095 0.676348C17.976 0.183753 16.0427 0.0587453 16.0427 0.0587453C17.8386 -0.241872 21.1165 0.709089 21.1165 0.709089ZM10.4822 23.0538H12.9474L12.9489 11.6542C12.9489 11.419 13.043 11.1928 13.2088 11.0262C13.3732 10.861 13.5958 10.7672 13.8288 10.7672H19.5974V7.44108C19.5944 7.36518 19.563 7.29077 19.5092 7.23571C19.4554 7.18064 19.3822 7.15088 19.306 7.15088H10.4822V23.0538ZM11.7656 8.94565C11.7671 8.78641 11.8955 8.65545 12.0569 8.65247V8.65099H18.0241C18.1003 8.65248 18.1735 8.68224 18.2273 8.73581C18.2826 8.79236 18.3125 8.86826 18.3125 8.94565C18.3005 9.10042 18.178 9.22543 18.0211 9.23883H12.0569C11.9 9.22692 11.776 9.10191 11.7656 8.94565ZM8.04092 7.44547V7.73865H8.21721C8.69381 7.75502 9.07031 8.14493 9.06733 8.61966C9.07181 8.85182 8.98366 9.07654 8.8238 9.24322C8.66543 9.40841 8.4473 9.50217 8.21721 9.50217H8.04092V11.0648H8.21721C8.4458 11.0648 8.66543 11.1585 8.8238 11.3237C9.16295 11.6839 9.14502 12.2509 8.78346 12.5887C8.62957 12.7331 8.42937 12.8179 8.21721 12.8283H8.04092V14.3909H8.21721C8.70875 14.4013 9.09721 14.8061 9.08675 15.2943C9.07629 15.769 8.69232 16.15 8.21721 16.1604H8.04092V17.723H8.21721C8.4458 17.723 8.66543 17.8168 8.8238 17.9819C9.16295 18.3406 9.14502 18.9046 8.78495 19.241L8.78197 19.2439C8.62659 19.3883 8.42488 19.4746 8.21273 19.4865H8.03643V21.0491H8.21273C8.68933 21.0655 9.06733 21.4569 9.06284 21.9331C9.06882 22.1653 8.98067 22.39 8.81932 22.5567C8.65945 22.7219 8.43983 22.8156 8.20974 22.8156H8.03345C8.04689 22.9704 8.17239 23.0924 8.32777 23.1028H9.8786V7.15527H8.32628C8.24859 7.15527 8.17389 7.18504 8.1201 7.2401C8.0693 7.29665 8.04092 7.36957 8.04092 7.44547ZM40 25H43.7309L43.732 24.9979V8H40V25ZM48.3626 25H44.2663V21.3393H48.1475C48.462 21.341 48.7701 21.25 49.033 21.0777C49.2959 20.9054 49.502 20.6595 49.6254 20.3707C49.7487 20.0825 49.781 19.7635 49.7179 19.4565C49.6548 19.1495 49.4994 18.8689 49.2724 18.6523C48.9699 18.3576 48.563 18.194 48.1403 18.1973H44.2632V14.8006H47.2603C47.4659 14.801 47.6694 14.7596 47.8586 14.6791C48.0477 14.5986 48.2185 14.4806 48.3605 14.3322C48.5799 14.115 48.7292 13.8373 48.7894 13.5348C48.8495 13.2323 48.8177 12.9188 48.6981 12.6344C48.5761 12.3477 48.3725 12.1031 48.1125 11.9307C47.8526 11.7584 47.5477 11.6659 47.2356 11.6648H44.2663V8H47.2963C47.9724 8.00059 48.6417 8.13457 49.2658 8.39422C49.8898 8.65387 50.4563 9.03407 50.9326 9.51296C51.7899 10.3419 52.326 11.4465 52.4464 12.6317C52.5667 13.8168 52.2635 15.0063 51.5902 15.99V16.0024C52.371 16.6798 52.9287 17.5767 53.1903 18.5757C53.452 19.5746 53.4054 20.6291 53.0566 21.6012C52.7079 22.5733 52.0732 23.4177 51.2357 24.024C50.3982 24.6302 49.3968 24.97 48.3626 24.999V25ZM55.4866 25H59.2185V24.9979V8H55.4866V25ZM75.291 25H79.1835L79.1846 24.999L82.8013 14.8807L84.3646 19.245H81.8184L80.5071 22.9067H85.6707L86.4179 24.9979H90.3166L84.2772 8H81.349L75.291 25ZM96.1812 24.9743H92.4492V8H96.1812V24.9733V24.9743ZM96.7126 18.7038L98.4232 16.8755L105.998 24.998L105.995 25.0001H101.056L96.7126 20.3359V18.7038ZM101.024 8L96.7126 12.6426V17.9241L98.3162 16.2098L105.982 8H101.024ZM65.6883 20.6906C66.0535 21.0963 66.5539 21.356 67.0965 21.4216V24.997C65.5999 24.9265 64.1854 24.2944 63.136 23.2273C62.0786 22.1582 61.4839 20.7175 61.48 19.2153H65.1101C65.1175 19.7607 65.323 20.2849 65.6883 20.6906ZM69.694 8V19.2142C69.6954 19.4925 69.6409 19.7684 69.5338 20.0254C69.4266 20.2824 69.2691 20.5154 69.0703 20.7107C68.6914 21.1127 68.1796 21.3644 67.6294 21.4194V24.9938C69.118 24.9255 70.5231 24.2876 71.553 23.2128C72.583 22.1379 73.1586 20.7086 73.1604 19.2214V8H69.694ZM8.24217 9.00672H6.98269C6.81984 8.97696 6.70629 8.83111 6.71525 8.66741C6.70928 8.58258 6.73318 8.49776 6.78547 8.43079C6.83328 8.36977 6.905 8.33257 6.98269 8.32959H8.21528C8.29147 8.33405 8.3617 8.37275 8.40801 8.43376C8.45881 8.50073 8.48271 8.58407 8.47524 8.6689C8.48869 8.82218 8.39008 8.96356 8.24217 9.00672ZM6.98277 12.3031H8.24225C8.40062 12.2703 8.50968 12.126 8.49922 11.9653C8.50819 11.8045 8.39912 11.6617 8.24225 11.6274H6.98277C6.8244 11.6602 6.71533 11.8045 6.72579 11.9653C6.71533 12.126 6.82589 12.2689 6.98277 12.3031ZM8.24225 15.6337H6.98277C6.82589 15.5979 6.71683 15.4551 6.72579 15.2958C6.71533 15.1351 6.8244 14.9907 6.98277 14.958H8.24225C8.39912 14.9922 8.50819 15.1351 8.49922 15.2958C8.50968 15.4566 8.40062 15.6009 8.24225 15.6337ZM6.98292 18.9525H8.2424C8.40077 18.9198 8.50984 18.7754 8.49938 18.6147C8.50834 18.454 8.39928 18.3111 8.2424 18.2769H6.98292C6.90523 18.2798 6.83352 18.317 6.78571 18.3781C6.73342 18.445 6.70802 18.5299 6.71399 18.6132C6.70353 18.7799 6.82007 18.9257 6.98292 18.9525ZM8.41241 21.713C8.46321 21.78 8.48711 21.8633 8.47964 21.9481C8.49159 22.1014 8.39448 22.2428 8.24657 22.2875H6.98709C6.82424 22.2592 6.7092 22.1133 6.71965 21.9496C6.71069 21.7859 6.82573 21.6416 6.98709 21.6118H8.21968C8.29587 21.6163 8.3661 21.6535 8.41241 21.713ZM23.5588 17.4883H21.8855L22.7057 19.1982L23.5588 17.4883ZM23.1448 7.15098C23.469 7.15396 23.729 7.41588 23.7305 7.73882L23.7215 8.47548H21.6687V7.74031C21.6687 7.58256 21.7329 7.43077 21.845 7.31915C21.9556 7.20902 22.108 7.14801 22.2648 7.15098H23.1448ZM23.731 9.06494H21.6782V16.8988H23.731V9.06494ZM24.8439 22.7041L23.1138 24.4111V22.7041H24.8439ZM22.5283 24.8132H13.8136C13.6522 24.8117 13.5222 24.6807 13.5222 24.52V11.656C13.5312 11.4982 13.6582 11.3717 13.8165 11.3628H21.1254V17.198C21.1224 17.2397 21.1329 17.2814 21.1553 17.3156L22.476 19.9646C22.5478 20.1104 22.7226 20.17 22.869 20.1C22.9287 20.0718 22.9765 20.0241 23.0049 19.9646L24.3152 17.3156L24.3177 17.311C24.3197 17.3073 24.3212 17.3044 24.3212 17.3022C24.3869 16.7813 24.3974 16.256 24.3481 15.7336C24.3481 15.3886 24.3477 14.9742 24.3471 14.4698L24.3471 14.4667V14.4667C24.3462 13.6791 24.3451 12.6722 24.3451 11.3673H24.9621C25.0368 11.3687 25.1086 11.4 25.1594 11.4551C25.2102 11.5116 25.2341 11.586 25.2266 11.6604V22.0957H22.8212C22.6628 22.1061 22.5373 22.2311 22.5268 22.3889L22.5283 24.8132ZM15.2344 21.935C15.1612 21.9365 15.091 21.9647 15.0372 22.0153C14.9819 22.0734 14.9535 22.1508 14.9595 22.2311C14.9595 22.31 14.9909 22.3859 15.0476 22.441C15.1029 22.496 15.1776 22.5258 15.2538 22.5258H20.8191V22.5228C20.982 22.5169 21.1105 22.38 21.103 22.2163V22.2148C21.0985 22.06 20.9745 21.9365 20.8191 21.932H15.2538L15.2344 21.935ZM15.2344 19.8783C15.1627 19.8783 15.0925 19.9066 15.0417 19.9557C14.9849 20.0137 14.9565 20.0911 14.961 20.1715C14.961 20.2503 14.9924 20.3262 15.0491 20.3813C15.1044 20.4364 15.1791 20.4661 15.2553 20.4661H19.984C20.1408 20.4527 20.2634 20.3277 20.2753 20.1729C20.2753 20.0956 20.2439 20.0197 20.1902 19.9631C20.1364 19.9095 20.0632 19.8798 19.987 19.8783H15.2344ZM15.2508 17.8112C15.088 17.8171 14.9595 17.954 14.967 18.1177V18.1192C14.9714 18.274 15.0954 18.3975 15.2508 18.402H19.6837C19.8465 18.396 19.975 18.2591 19.9675 18.0954V18.0939C19.9631 17.9392 19.839 17.8156 19.6837 17.8112H15.2508ZM15.2508 15.75C15.088 15.756 14.9595 15.8929 14.967 16.0566V16.0581C14.9714 16.2128 15.0954 16.3364 15.2508 16.3408H19.3864C19.5492 16.3349 19.6777 16.198 19.6702 16.0343V16.0328C19.6657 15.878 19.5417 15.7545 19.3864 15.75H15.2508ZM15.2508 13.6889C15.088 13.6948 14.9595 13.8317 14.967 13.9954V13.9969C14.9714 14.1517 15.0954 14.2752 15.2508 14.2797H19.3864C19.5492 14.2737 19.6777 14.1368 19.6702 13.9731V13.9716C19.6657 13.8168 19.5417 13.6933 19.3864 13.6889H15.2508Z" fill="#198548"/>
<path d="M19.8899 0.232865C20.3097 0.36085 20.7191 0.520087 21.1165 0.709089C21.1165 0.709089 17.8386 -0.241872 16.0427 0.0587453C16.0427 0.0587453 17.976 0.183753 18.6095 0.676348C18.6095 0.676348 16.113 -0.0394766 12.3091 1.13471C12.3091 1.13471 18.747 -0.316283 23.9567 3.15272C29.1664 6.62172 32.5983 13.1013 29.8821 20.8668C27.1659 28.6322 18.9621 31.808 12.9889 30.6339C7.01421 29.4582 2.01512 24.6691 1.0425 18.5258C0.069873 12.3825 1.96433 9.26923 2.56792 8.20963C3.17152 7.15003 3.72282 6.38658 4.03807 5.81511C4.33389 5.30912 4.68947 4.83885 5.09734 4.41769C5.01965 4.64687 5.21239 4.97428 5.74128 4.98172C6.0879 4.98767 6.42854 4.8954 6.72436 4.71533C6.50175 4.43852 6.20294 4.23018 5.86379 4.11856C5.66658 4.06796 5.45741 4.10517 5.29157 4.22273C5.48878 4.02331 5.70094 3.8239 5.92803 3.62597C6.08491 3.93402 6.39269 4.13493 6.73781 4.15577C7.08443 4.14535 7.42357 4.04564 7.7194 3.86557C7.48184 3.57834 7.16361 3.36999 6.80355 3.2688C6.60633 3.24498 6.40613 3.28963 6.2373 3.39381H6.25374C6.53163 3.18099 6.78562 2.99497 7.00972 2.81043C7.09488 3.16909 7.42656 3.41464 7.79559 3.39381C8.13325 3.39083 8.46493 3.29112 8.7473 3.10658C8.51871 2.80299 8.18853 2.59018 7.81651 2.50981C7.62229 2.49344 7.42656 2.52916 7.25027 2.61399C7.4938 2.41457 7.694 2.27021 7.84041 2.16158C8.15118 2.19729 8.46493 2.11544 8.71742 1.93239C8.96842 1.69726 9.14322 1.39366 9.22241 1.05882C8.85039 0.999289 8.4709 1.05733 8.13474 1.22847C7.89868 1.43236 7.76422 1.73 7.7687 2.04252C7.68354 2.09609 7.5177 2.21217 7.29808 2.36248C7.41611 2.20622 7.47288 2.01127 7.45794 1.81482C7.40415 1.49784 7.27417 1.19722 7.08144 0.938273C6.7662 1.17341 6.57944 1.54397 6.57944 1.93686C6.55404 2.21515 6.6631 2.48749 6.87376 2.67203C6.70793 2.79704 6.53462 2.928 6.35234 3.07087C6.44796 2.90121 6.48083 2.70477 6.44647 2.51428C6.39268 2.22557 6.25672 1.95769 6.05353 1.74488C5.78311 1.98597 5.6098 2.31784 5.56498 2.67649C5.49924 2.9786 5.60681 3.29112 5.84287 3.49054C5.67703 3.63192 5.51418 3.78074 5.33788 3.94295C5.35432 3.90575 5.36478 3.87152 5.38121 3.82836C5.4589 3.36851 5.34088 2.89675 5.05253 2.52916C4.49375 2.98753 4.41158 3.80902 4.86876 4.36858H4.89565C4.27861 4.96832 3.71535 5.61867 3.20887 6.31366C1.38314 8.86741 -0.167677 12.6385 0.0145971 16.2623C0.196871 19.8861 1.58633 26.7883 9.3509 30.5193C17.117 34.2502 26.0992 30.6339 30.2481 22.9994C34.3971 15.3649 31.2671 3.04259 19.8899 0.232865Z" fill="#198548"/>
</g>
<defs>
<clipPath id="clip0_2402_4761">
<rect width="106" height="32" fill="white"/>
</clipPath>
</defs>
</svg>
