<svg width="75" height="80" viewBox="0 0 75 80" fill="none" xmlns="http://www.w3.org/2000/svg">
<path d="M35.2532 73.648H39.1542V3.74743H35.2532V73.648Z" fill="#F9DB1B"/>
<path d="M37.9998 5.32929V73.6693C37.9998 73.6693 42.3932 82.9253 56.1065 77.7626C60.4785 76.1173 68.0478 69.1093 60.1145 63.5186C60.1145 63.5186 74.8892 61.796 68.1812 53.6386C68.1812 53.6386 80.7798 47.3853 69.5425 39.7706C69.5425 39.7706 79.8745 32.1573 66.8225 27.4453C66.8225 27.4453 77.0638 16.2066 61.1118 15.4813C61.1118 15.4813 64.4652 4.37863 54.2705 6.0773C45.1145 7.60263 48.3318 3.15464 44.7078 0.978636C41.0812 -1.19603 37.9998 0.253287 37.9998 5.32929Z" fill="#F47016"/>
<path d="M52.1705 25.2986L51.9252 25.2973C51.3105 25.292 50.4692 25.284 49.7025 24.8547C48.7732 24.3347 48.1985 23.3107 48.2412 22.248L50.5319 22.3373C50.5239 22.5347 50.6492 22.7573 50.8225 22.8547C51.0772 22.996 51.5385 23 51.9438 23.004C52.4358 23.008 53.0385 23.0133 53.3679 22.8067C53.6119 22.6533 53.8092 22.308 53.8919 21.884C53.9932 21.3747 53.9452 20.792 53.8972 20.1773L53.7999 18.9547L54.4478 18.9467C54.7185 18.1773 55.4945 17.6267 56.3879 17.5733C56.9985 17.5333 57.5305 17.7146 58.0145 17.9C59.2238 18.3613 60.6825 19.0853 61.2212 20.5973L59.0625 21.3693C58.8345 20.7306 57.8879 20.3053 57.1985 20.0413C57.0239 19.976 56.7745 19.8813 56.5985 19.864C56.5172 20.188 56.3879 20.4453 56.2292 20.6453C56.2585 21.1787 56.2558 21.748 56.1438 22.3266C55.9332 23.3933 55.3785 24.2547 54.5839 24.7507C53.7812 25.252 52.8825 25.2986 52.1705 25.2986Z" fill="#F9DB1B"/>
<path d="M59.4385 40.1026C58.3239 40.1026 57.2545 39.5733 56.5785 38.6866C55.8972 37.792 55.6732 36.6133 55.9772 35.5346L58.1852 36.1573C58.0772 36.5347 58.1639 36.9826 58.4025 37.2973C58.6412 37.6093 59.0772 37.7866 59.4439 37.8093C59.8199 37.8066 60.2705 37.6386 60.7079 37.476C60.8332 37.4306 61.0932 37.3333 61.1559 37.272C61.1625 37.256 61.1932 37.152 61.2065 36.8227C61.2265 36.324 61.2172 35.7026 60.9785 35.3213C60.8119 35.0586 60.4945 34.8253 60.1239 34.5573C59.7959 34.316 59.4199 34.0427 59.0892 33.6893C58.0479 32.576 57.7012 30.9306 58.2065 29.4946L58.3319 29.1386L58.5759 28.9733L58.6372 28.8493C58.7425 28.6413 58.8852 28.3573 59.1492 28.1C59.4745 27.7826 60.0799 27.428 61.0999 27.5133C62.4785 27.636 63.7945 28.368 64.6225 29.476L62.7852 30.8493C62.3425 30.256 61.6372 29.8626 60.8985 29.7973L60.7292 29.7946L60.6865 29.88C60.6039 30.048 60.4905 30.2706 60.3065 30.4853C60.1945 31.056 60.3679 31.6986 60.7625 32.1213C60.9465 32.3173 61.2039 32.5053 61.4772 32.704C61.9639 33.06 62.5172 33.464 62.9185 34.0973C63.4959 35.0146 63.5305 36.084 63.4972 36.9146C63.4825 37.284 63.4505 38.0546 62.9625 38.6853C62.5252 39.248 61.9132 39.4747 61.5065 39.6253C60.9412 39.836 60.2385 40.0973 59.4572 40.1026H59.4385Z" fill="#F9DB1B"/>
<path d="M56.8585 50.5386C56.4839 50.5386 56.0865 50.492 55.6852 50.352C54.8039 50.0453 54.0665 49.312 53.6612 48.3413C53.3199 47.5266 53.2532 46.696 53.2345 45.9907C53.2265 45.664 53.2079 44.9013 53.7492 44.308C54.3799 43.62 55.2199 43.6773 55.7225 43.712C55.8492 43.72 56.0452 43.7306 56.1078 43.72L56.6025 45.9587C56.2172 46.044 55.8559 46.0186 55.5665 46L55.5292 45.996C55.5452 46.4733 55.5892 47.012 55.7745 47.456C55.9265 47.816 56.1812 48.0973 56.4412 48.188C56.7065 48.2813 57.1052 48.2426 57.4585 48.1973C58.2839 48.0973 59.3052 47.904 59.8705 47.312C60.2652 46.8986 60.5052 46.2306 60.6279 45.2106C60.6879 44.7093 60.8279 43.532 61.8972 43.068C62.2532 42.9146 62.5945 42.904 62.7772 42.8973C63.4945 42.8786 64.2145 42.9106 64.9185 42.9973C65.3479 43.0506 65.8065 43.1373 66.2385 43.412C67.0705 43.9373 67.4892 44.9333 67.4132 46.216C67.4052 46.368 67.3905 46.524 67.3785 46.68C67.3412 47.084 67.3092 47.4666 67.3972 47.7053L65.2532 48.5146C64.9772 47.7853 65.0425 47.06 65.0945 46.476C65.1052 46.3453 65.1172 46.216 65.1252 46.0853C65.1532 45.592 65.0398 45.376 65.0105 45.348C64.9678 45.324 64.8412 45.3 64.6359 45.2733C64.0799 45.2053 63.5159 45.1747 62.9492 45.188C62.9359 45.2587 62.9212 45.3533 62.9052 45.4826C62.7892 46.4506 62.5199 47.8573 61.5292 48.8946C60.4639 50.0133 58.9425 50.3266 57.7372 50.4746C57.4625 50.508 57.1665 50.5386 56.8585 50.5386Z" fill="#F9DB1B"/>
<path d="M44.5532 20.284C43.8772 20.284 43.1999 20.152 42.5625 19.8C41.5772 19.2546 40.8572 18.248 40.5372 16.968C40.2826 15.9546 40.3119 14.9306 40.3359 14.028C40.3546 13.4013 40.3772 12.6227 40.6932 11.8707C40.9465 11.2667 41.3399 10.7987 41.6879 10.3853C42.1412 9.85067 42.7026 9.188 43.5039 8.78266C44.5799 8.236 45.8425 8.34931 46.6452 9.06665L45.1145 10.776C45.0479 10.7147 44.7812 10.7053 44.5425 10.828C44.1532 11.024 43.7905 11.452 43.4412 11.8653C43.1772 12.1786 42.9265 12.476 42.8065 12.76C42.6572 13.1173 42.6439 13.612 42.6292 14.092C42.6065 14.884 42.5839 15.704 42.7612 16.412C42.9239 17.0587 43.2559 17.5626 43.6745 17.7946C44.3479 18.1666 45.3892 17.9373 46.3199 17.6666L46.3572 17.656L46.3625 17.6187C46.4785 16.7907 46.2839 15.9173 45.8292 15.22L45.7212 15.056C45.3532 14.508 44.7972 13.68 45.1092 12.664C45.4065 11.6853 46.4545 11.0573 47.6639 11.1227C48.6905 11.1827 49.6719 11.6573 50.3572 12.428C50.4705 12.5546 50.5759 12.692 50.6799 12.8293L50.9265 13.1306C51.2505 13.4706 51.8652 13.5493 52.2666 13.3093C52.6666 13.0693 52.8852 12.4907 52.7412 12.044L54.9252 11.3413C55.3932 12.7987 54.7572 14.492 53.4439 15.2773C52.1279 16.0627 50.3359 15.8253 49.2745 14.724C49.1225 14.5667 48.9879 14.392 48.8545 14.2173L48.6439 13.952C48.3639 13.6373 47.9479 13.436 47.5305 13.412L47.3785 13.4187L47.6252 13.7787L47.7519 13.9693C48.5039 15.124 48.8266 16.5693 48.6346 17.9346C48.5799 18.328 48.4506 18.904 47.9719 19.3493C47.6186 19.676 47.2092 19.796 46.9639 19.868C46.2052 20.0906 45.3799 20.284 44.5532 20.284Z" fill="#F9DB1B"/>
<path d="M51.1105 38.056C50.3718 38.056 49.5745 37.8466 48.7812 37.428L49.8545 35.4013C50.4705 35.728 51.2772 35.9146 51.6945 35.6013C51.9692 35.3933 52.1159 34.912 52.0585 34.4C51.9945 33.8306 51.7212 33.232 51.4359 32.6453C50.8452 32.2093 49.8905 32.2173 49.3332 32.6893C49.1799 32.82 49.0478 32.972 48.9132 33.1227C48.7132 33.3453 48.5105 33.564 48.2839 33.7587C46.9559 34.896 44.9358 35.0187 43.4798 34.052C42.5932 33.464 41.9212 32.512 41.4852 31.2227C41.3199 30.7333 41.1972 30.2346 41.1172 29.7373C40.8705 28.228 41.1785 27.0093 42.0052 26.2173C42.9639 25.3027 44.2879 25.2693 45.3319 25.3413C46.1772 25.4 47.0678 25.5173 47.8772 25.9733C48.9678 26.5893 49.6012 27.704 49.4905 28.816L47.2092 28.5893C47.2265 28.4013 47.0212 28.124 46.7492 27.9706C46.3172 27.7266 45.7092 27.6666 45.1732 27.628C44.6438 27.5906 43.9012 27.576 43.5905 27.876C43.3452 28.1093 43.2678 28.6693 43.3812 29.372C43.4398 29.7466 43.5332 30.1213 43.6585 30.4893C43.9265 31.284 44.2932 31.8413 44.7478 32.1413C45.3465 32.54 46.2452 32.484 46.7932 32.0173C46.9439 31.8867 47.0745 31.7373 47.2092 31.5893C47.4118 31.3627 47.6185 31.1387 47.8492 30.9427C49.3492 29.6667 51.7292 29.736 53.1532 31.1L53.2999 31.24L53.3892 31.4213C53.7772 32.212 54.2199 33.108 54.3359 34.1413C54.4879 35.472 54.0025 36.7333 53.0705 37.4346C52.5199 37.8493 51.8452 38.056 51.1105 38.056Z" fill="#F9DB1B"/>
<path d="M45.9999 48.1227L45.9239 48.1213C43.5625 48.092 41.2839 46.6426 40.2559 44.5146C39.8879 43.7533 39.7398 43.0226 39.8132 42.3426C39.9185 41.3506 40.5065 40.5066 41.3478 40.1386C41.8212 39.9346 42.2879 39.9093 42.6905 39.9026C43.6065 39.8853 44.6119 39.9706 45.3892 40.708L45.5305 40.8413L45.6185 41.0146C46.1012 41.948 46.2972 43.0373 46.1719 44.0786L43.8945 43.8053C43.9559 43.2973 43.8825 42.7706 43.6879 42.296C43.4172 42.1826 42.9159 42.1906 42.7319 42.1946C42.6092 42.1973 42.3559 42.2013 42.2639 42.2413C42.2145 42.264 42.1119 42.3973 42.0919 42.5866C42.0652 42.8346 42.1425 43.148 42.3212 43.5173C42.9692 44.8586 44.4625 45.8093 45.9532 45.828C46.8399 45.8573 47.6612 45.544 48.2065 45.0173C48.7438 44.4973 48.9932 43.7186 48.8252 43.0813L51.0412 42.4946C51.4225 43.932 50.9345 45.5706 49.7999 46.6666C48.8385 47.5946 47.4572 48.1227 45.9999 48.1227Z" fill="#F9DB1B"/>
<path d="M46.5345 65.6333L46.4359 65.632C44.6705 65.6107 43.5025 64.8973 43.2319 63.6733L45.4705 63.1773C45.5092 63.1907 45.8452 63.3307 46.4625 63.3387C47.3919 63.3667 48.0012 63.1213 48.0705 62.9C48.1079 62.7827 48.0545 62.5013 47.7999 62.068C47.5705 61.676 47.3545 61.432 47.1425 61.3214C46.8238 61.156 46.3345 61.1813 45.7732 61.212C45.3585 61.2333 44.8892 61.2587 44.4158 61.2067C43.1785 61.0667 42.0398 60.348 41.2838 59.236C40.5305 58.1253 40.2852 56.8 40.6118 55.6013C40.7438 55.1213 40.9558 54.6453 41.2812 54.1027C41.5612 53.6373 42.0172 52.9613 42.7279 52.484C43.1999 52.168 43.7519 51.9534 44.4225 51.824C46.1065 51.5054 47.8918 51.8613 49.3198 52.808C50.7478 53.756 51.7732 55.2613 52.1319 56.9373L49.8905 57.4173C49.6559 56.3213 48.9865 55.3387 48.0518 54.7187C47.1185 54.1 45.9532 53.8693 44.8532 54.0773C44.4918 54.1467 44.2158 54.248 44.0065 54.388C43.7545 54.5574 43.5118 54.844 43.2465 55.2867C43.0318 55.6414 42.8985 55.9333 42.8252 56.204C42.6772 56.748 42.8105 57.4013 43.1825 57.9493C43.5545 58.4987 44.1118 58.864 44.6732 58.928C44.9585 58.9613 45.2932 58.9414 45.6478 58.9227C46.4345 58.8774 47.3265 58.8294 48.2039 59.2894C49.0065 59.708 49.4865 60.412 49.7758 60.904C50.3478 61.876 50.5105 62.7787 50.2599 63.5827C50.0199 64.352 49.2159 65.6333 46.5345 65.6333Z" fill="#F9DB1B"/>
<path d="M55.8252 62.1306C54.9892 62.1306 53.5919 62.0786 52.6972 61.0333L54.4372 59.5413C54.6945 59.8427 55.5439 59.836 55.9585 59.8373L56.2172 59.8306L56.2799 59.5946L56.8945 57.1133C57.0505 56.4893 57.3105 55.4467 58.2412 54.8547C58.9278 54.42 59.6945 54.428 60.1972 54.4306C60.8132 54.436 61.6599 54.4426 62.4265 54.8986C63.0705 55.28 63.4532 55.856 63.7612 56.3187C63.9465 56.6 64.1225 56.8667 64.3025 57.0067L62.8892 58.812C62.4185 58.4427 62.1145 57.988 61.8492 57.5867C61.6439 57.2787 61.4505 56.9853 61.2585 56.8707C61.0212 56.7307 60.5532 56.7267 60.1785 56.724C59.9692 56.7213 59.5852 56.7187 59.4692 56.792C59.3145 56.8907 59.1732 57.4533 59.1212 57.6666L58.5065 60.1453C58.4172 60.5093 58.2492 61.1853 57.6745 61.648C57.0785 62.128 56.3559 62.1293 55.9665 62.1306H55.8252Z" fill="#F9DB1B"/>
<path d="M45.8879 75.5733C45.0532 75.5733 44.0105 75.452 43.1839 74.7666C41.9399 73.7373 41.8385 72.052 42.1612 70.816L44.3799 71.3946C44.2359 71.9426 44.2585 72.68 44.6465 73C45.0145 73.3053 45.7559 73.2973 46.4812 73.2613C46.8372 73.2426 47.6719 73.2013 47.8879 72.916C48.0212 72.7426 48.0425 72.328 48.0625 71.928C48.0772 71.644 48.0945 71.36 48.1359 71.0866C48.4212 69.2213 49.9425 67.5493 52.0159 66.828C53.1545 66.4333 54.2839 66.356 55.2879 66.6093C56.5505 66.9253 57.5879 67.7706 58.0625 68.8706C58.3745 69.5893 58.4172 70.3426 58.4185 70.9186C58.4239 71.6186 58.3385 72.6333 57.5612 73.3333C57.1892 73.668 56.7092 73.88 56.1372 73.9587C55.0852 74.108 53.9745 73.716 53.1559 72.916C52.3372 72.1146 51.9239 71.0093 52.0465 69.9587L54.3252 70.228C54.2839 70.5786 54.4452 70.9706 54.7599 71.2773C55.0719 71.5826 55.4652 71.7373 55.8185 71.688C55.9479 71.6707 56.0132 71.6386 56.0279 71.628C56.0292 71.6253 56.1292 71.5053 56.1252 70.9293C56.1239 70.548 56.1039 70.116 55.9572 69.7813C55.7665 69.3386 55.2959 68.9746 54.7292 68.8333C54.0105 68.652 53.2692 68.8213 52.7705 68.9933C51.7212 69.3586 50.5825 70.2546 50.4025 71.432C50.3732 71.632 50.3639 71.84 50.3532 72.0466C50.3185 72.7226 50.2732 73.564 49.7185 74.2986C48.8572 75.44 47.3839 75.5133 46.5932 75.552C46.3865 75.5613 46.1479 75.5733 45.8879 75.5733Z" fill="#F9DB1B"/>
<path d="M36.2079 5.32929V73.6693C36.2079 73.6693 31.8132 82.9253 18.1012 77.7626C13.7292 76.1173 6.15987 69.1093 14.0919 63.5186C14.0919 63.5186 -0.681459 61.796 6.02521 53.6386C6.02521 53.6386 -6.57345 47.384 4.66521 39.7706C4.66521 39.7706 -5.66813 32.1573 7.38387 27.4453C7.38387 27.4453 -2.85746 16.2066 13.0945 15.4813C13.0945 15.4813 9.74122 4.37863 19.9386 6.0773C29.0932 7.60263 25.8745 3.15464 29.4999 0.978636C33.1252 -1.19603 36.2079 0.253287 36.2079 5.32929Z" fill="#F47016"/>
<path d="M22.0372 25.2986L22.2812 25.2973C22.8959 25.292 23.7372 25.284 24.5039 24.8547C25.4345 24.3347 26.0079 23.3107 25.9652 22.248L23.6745 22.3373C23.6825 22.5347 23.5572 22.7573 23.3839 22.8547C23.1292 22.996 22.6692 23 22.2625 23.004C21.7705 23.008 21.1679 23.0133 20.8386 22.8067C20.5946 22.6533 20.3972 22.308 20.3145 21.884C20.2145 21.3747 20.2612 20.792 20.3105 20.1773L20.4079 18.9547L19.7599 18.9467C19.4892 18.1773 18.7132 17.6267 17.8185 17.5733C17.2092 17.5333 16.6759 17.7146 16.1919 17.9C14.9825 18.3613 13.5239 19.0853 12.9852 20.5973L15.1439 21.3693C15.3719 20.7306 16.3185 20.3053 17.0092 20.0413C17.1825 19.976 17.4332 19.8813 17.6092 19.864C17.6892 20.188 17.8185 20.4453 17.9772 20.6453C17.9479 21.1787 17.9505 21.748 18.0639 22.3266C18.2732 23.3933 18.8279 24.2547 19.6239 24.7507C20.4252 25.252 21.3252 25.2986 22.0372 25.2986Z" fill="#F9DB1B"/>
<path d="M14.7679 40.1026C15.8839 40.1026 16.9519 39.5733 17.6292 38.6866C18.3092 37.792 18.5332 36.6133 18.2292 35.5346L16.0212 36.1573C16.1292 36.5347 16.0439 36.984 15.8052 37.2973C15.5652 37.6093 15.1292 37.7866 14.7625 37.8093C14.3865 37.8066 13.9359 37.6386 13.4985 37.476C13.3745 37.4306 13.1132 37.3333 13.0505 37.272C13.0465 37.256 13.0145 37.152 12.9999 36.8227C12.9812 36.324 12.9892 35.7026 13.2279 35.3213C13.3945 35.0586 13.7132 34.8253 14.0825 34.556C14.4118 34.316 14.7865 34.0427 15.1172 33.6893C16.1598 32.576 16.5052 30.9306 15.9999 29.4946L15.8758 29.1386L15.6305 28.9733L15.5692 28.8493C15.4639 28.6413 15.3212 28.3573 15.0572 28.1C14.7332 27.7826 14.1265 27.428 13.1065 27.5133C11.7278 27.636 10.4118 28.368 9.58517 29.476L11.4212 30.8493C11.8638 30.256 12.5692 29.8626 13.3078 29.7973L13.4785 29.7946L13.5198 29.88C13.6052 30.048 13.7172 30.2706 13.8999 30.4853C14.0119 31.056 13.8385 31.6986 13.4452 32.1213C13.2612 32.3173 13.0025 32.5053 12.7292 32.704C12.2425 33.06 11.6892 33.464 11.2878 34.0973C10.7118 35.0146 10.6758 36.084 10.7105 36.9146C10.7238 37.284 10.7558 38.0546 11.2452 38.6853C11.6812 39.248 12.2945 39.4747 12.6999 39.6253C13.2652 39.836 13.9678 40.0973 14.7492 40.1026H14.7679Z" fill="#F9DB1B"/>
<path d="M17.3478 50.5386C17.7238 50.5386 18.1198 50.492 18.5212 50.352C19.4025 50.0453 20.1412 49.312 20.5478 48.3413C20.8865 47.5266 20.9532 46.696 20.9719 45.9907C20.9812 45.6627 20.9985 44.9013 20.4585 44.308C19.8279 43.62 18.9878 43.6773 18.4852 43.712C18.3585 43.72 18.1612 43.732 18.1012 43.72L17.6039 45.9587C17.9905 46.044 18.3505 46.0186 18.6398 46L18.6772 45.996C18.6612 46.4733 18.6172 47.012 18.4319 47.456C18.2799 47.816 18.0252 48.0973 17.7665 48.188C17.5012 48.28 17.1038 48.2426 16.7492 48.1973C15.9225 48.0973 14.9012 47.904 14.3359 47.312C13.9425 46.8986 13.7012 46.2306 13.5785 45.2106C13.5198 44.7106 13.3798 43.532 12.3092 43.068C11.9532 42.9146 11.6119 42.904 11.4292 42.8986C10.7132 42.8786 9.99452 42.9106 9.28918 42.9973C8.85985 43.0506 8.39986 43.1373 7.96786 43.412C7.13586 43.9373 6.71719 44.9333 6.79319 46.216C6.80119 46.368 6.81586 46.524 6.82786 46.68C6.86519 47.084 6.8985 47.4666 6.80917 47.7053L8.95452 48.5146C9.22918 47.7853 9.16384 47.06 9.11317 46.476C9.10117 46.3453 9.09051 46.216 9.08251 46.0853C9.05318 45.592 9.16652 45.376 9.19586 45.348C9.23852 45.324 9.3652 45.3 9.57053 45.2733C10.1265 45.2053 10.6905 45.1747 11.2572 45.188C11.2719 45.2587 11.2852 45.3533 11.3012 45.4826C11.4185 46.4506 11.6878 47.8573 12.6772 48.8946C13.7438 50.0133 15.2639 50.3266 16.4705 50.4746C16.7439 50.508 17.0398 50.5386 17.3478 50.5386Z" fill="#F9DB1B"/>
<path d="M29.6545 20.284C30.3305 20.284 31.0065 20.152 31.6452 19.8C32.6292 19.2546 33.3492 18.248 33.6692 16.968C33.9239 15.9546 33.8945 14.9306 33.8705 14.028C33.8519 13.4013 33.8292 12.6227 33.5145 11.872C33.2599 11.2667 32.8665 10.7987 32.5185 10.3853C32.0652 9.85067 31.5039 9.188 30.7025 8.78266C29.6265 8.236 28.3639 8.34931 27.5612 9.06665L29.0919 10.776C29.1599 10.7147 29.4252 10.7053 29.6639 10.828C30.0532 11.024 30.4159 11.452 30.7652 11.8653C31.0292 12.1786 31.2799 12.476 31.3999 12.76C31.5505 13.1173 31.5639 13.612 31.5772 14.092C31.5999 14.884 31.6225 15.704 31.4452 16.412C31.2839 17.0587 30.9505 17.5626 30.5332 17.7946C29.8599 18.1666 28.8172 17.9373 27.8865 17.6666L27.8492 17.656L27.8439 17.6187C27.7279 16.7907 27.9225 15.9173 28.3772 15.22L28.4865 15.056C28.8545 14.508 29.4092 13.68 29.0972 12.6626C28.7999 11.6853 27.7519 11.0573 26.5439 11.1227C25.5159 11.1827 24.5345 11.6573 23.8492 12.428C23.7372 12.5546 23.6319 12.692 23.5279 12.8293L23.2812 13.1306C22.9559 13.4706 22.3412 13.5493 21.9398 13.3093C21.5398 13.0693 21.3225 12.4907 21.4665 12.044L19.2825 11.3413C18.8132 12.7987 19.4492 14.4907 20.7625 15.2773C22.0785 16.0627 23.8719 15.8253 24.9319 14.724C25.0839 14.5667 25.2185 14.392 25.3519 14.2173L25.5625 13.952C25.8425 13.6373 26.2585 13.436 26.6759 13.412L26.8292 13.4187L26.5825 13.7787L26.4545 13.9693C25.7039 15.124 25.3825 16.5693 25.5732 17.9333C25.6265 18.328 25.7559 18.904 26.2345 19.3493C26.5892 19.676 26.9985 19.796 27.2425 19.868C28.0012 20.0906 28.8279 20.284 29.6545 20.284Z" fill="#F9DB1B"/>
<path d="M23.0972 38.056C23.8346 38.056 24.6332 37.8466 25.4252 37.428L24.3532 35.4013C23.7372 35.728 22.9292 35.9146 22.5132 35.6013C22.2372 35.3933 22.0905 34.912 22.1479 34.4C22.2132 33.8306 22.4852 33.232 22.7719 32.6453C23.3612 32.2093 24.3159 32.2173 24.8732 32.6893C25.0265 32.82 25.1599 32.972 25.2932 33.1227C25.4946 33.3453 25.6972 33.564 25.9226 33.7587C27.2506 34.896 29.2719 35.0187 30.7266 34.052C31.6132 33.464 32.2852 32.512 32.7226 31.2227C32.8866 30.7333 33.0106 30.2346 33.0906 29.7373C33.3359 28.228 33.0279 27.0093 32.2012 26.2173C31.2426 25.3027 29.9185 25.2693 28.8745 25.3413C28.0305 25.4 27.1386 25.5173 26.3292 25.9733C25.2399 26.5893 24.6065 27.704 24.7172 28.816L26.9986 28.5893C26.9799 28.4013 27.1852 28.124 27.4572 27.9706C27.8892 27.7266 28.4972 27.6666 29.0332 27.628C29.5639 27.5906 30.3052 27.576 30.6159 27.876C30.8612 28.1093 30.9399 28.6693 30.8266 29.372C30.7666 29.7466 30.6732 30.1213 30.5505 30.4893C30.2799 31.284 29.9132 31.8413 29.4599 32.1413C28.8599 32.54 27.9612 32.484 27.4145 32.0173C27.2625 31.8867 27.1319 31.7373 26.9986 31.5893C26.7946 31.3627 26.5892 31.1387 26.3586 30.9413C24.8572 29.6667 22.4772 29.736 21.0532 31.1L20.9065 31.24L20.8186 31.4213C20.4292 32.212 19.9879 33.108 19.8706 34.1413C19.7186 35.472 20.2039 36.7333 21.1359 37.4346C21.6866 37.8493 22.3612 38.056 23.0972 38.056Z" fill="#F9DB1B"/>
<path d="M28.2079 48.1227L28.2825 48.1213C30.6452 48.092 32.9225 46.6426 33.9505 44.5146C34.3185 43.7533 34.4679 43.0226 34.3946 42.3426C34.2879 41.3506 33.7012 40.5066 32.8585 40.1386C32.3865 39.9346 31.9185 39.9093 31.5172 39.9026C30.6012 39.8853 29.5945 39.9706 28.8172 40.708L28.6759 40.8413L28.5879 41.0146C28.1065 41.948 27.9092 43.0373 28.0346 44.0786L30.3119 43.8053C30.2505 43.2973 30.3252 42.7706 30.5185 42.296C30.7905 42.1826 31.2919 42.1906 31.4759 42.1946C31.5985 42.1973 31.8519 42.2013 31.9425 42.2413C31.9932 42.264 32.0945 42.3973 32.1145 42.5866C32.1425 42.8346 32.0639 43.148 31.8852 43.5173C31.2372 44.8586 29.7439 45.8093 28.2545 45.828C27.3665 45.8573 26.5452 45.544 26.0012 45.0173C25.4626 44.4973 25.2145 43.7186 25.3839 43.0813L23.1652 42.4946C22.7852 43.932 23.2732 45.5706 24.4079 46.6666C25.3692 47.5946 26.7492 48.1227 28.2079 48.1227Z" fill="#F9DB1B"/>
<path d="M27.6732 65.6333L27.7719 65.632C29.5372 65.6107 30.7052 64.8973 30.9758 63.6733L28.7359 63.1773C28.6985 63.1907 28.3625 63.3307 27.7452 63.3387C26.8145 63.3667 26.2052 63.1213 26.1359 62.9C26.0999 62.7827 26.1518 62.5013 26.4065 62.068C26.6358 61.676 26.8519 61.432 27.0652 61.3214C27.3839 61.156 27.8719 61.1813 28.4345 61.212C28.8479 61.2333 29.3172 61.2587 29.7918 61.2067C31.0278 61.0667 32.1678 60.348 32.9225 59.236C33.6758 58.1253 33.9212 56.8 33.5945 55.6013C33.4638 55.1213 33.2505 54.6453 32.9252 54.1027C32.6452 53.6373 32.1892 52.9613 31.4785 52.484C31.0078 52.168 30.4545 51.9534 29.7852 51.824C28.0998 51.5054 26.3158 51.8613 24.8865 52.808C23.4585 53.756 22.4332 55.2613 22.0745 56.9373L24.3172 57.4173C24.5505 56.3227 25.2198 55.3387 26.1558 54.7187C27.0878 54.1 28.2532 53.8693 29.3545 54.0773C29.7145 54.1467 29.9919 54.248 30.1999 54.388C30.4519 54.5574 30.6945 54.844 30.9612 55.2867C31.1745 55.6414 31.3078 55.9333 31.3825 56.204C31.5292 56.748 31.3958 57.4013 31.0252 57.9493C30.6518 58.4987 30.0945 58.864 29.5332 58.928C29.2479 58.9613 28.9145 58.9414 28.5585 58.9227C27.7732 58.8774 26.8812 58.8294 26.0039 59.2894C25.1999 59.708 24.7198 60.412 24.4305 60.904C23.8585 61.876 23.6958 62.7787 23.9465 63.5827C24.1878 64.352 24.9918 65.6333 27.6732 65.6333Z" fill="#F9DB1B"/>
<path d="M18.3825 62.1306C19.2172 62.1306 20.6158 62.0786 21.5105 61.0333L19.7705 59.54C19.5119 59.8427 18.6625 59.836 18.2478 59.8373L17.9905 59.8293L17.9265 59.5946L17.3118 57.1133C17.1572 56.4893 16.8972 55.4467 15.9652 54.8547C15.2785 54.42 14.5118 54.428 14.0092 54.4306C13.3932 54.436 12.5492 54.4426 11.7798 54.8986C11.1358 55.28 10.7532 55.856 10.4465 56.3187C10.2598 56.6 10.0839 56.8667 9.90387 57.0067L11.3185 58.812C11.7892 58.4427 12.0919 57.9893 12.3585 57.5867C12.5625 57.2787 12.7572 56.9853 12.9492 56.8707C13.1852 56.7307 13.6545 56.7267 14.0292 56.724C14.2372 56.7213 14.6212 56.7187 14.7372 56.792C14.8919 56.8907 15.0332 57.4533 15.0852 57.6666L15.6999 60.1453C15.7892 60.5093 15.9572 61.1853 16.5319 61.648C17.1279 62.128 17.8505 62.1293 18.2398 62.1306H18.3825Z" fill="#F9DB1B"/>
<path d="M28.3198 75.5733C29.1532 75.5733 30.1958 75.452 31.0225 74.7666C32.2692 73.7373 32.3678 72.0506 32.0465 70.8173L29.8279 71.3946C29.9705 71.9426 29.9479 72.68 29.5599 73C29.1919 73.3053 28.4505 73.2973 27.7252 73.2613C27.3692 73.2426 26.5345 73.2013 26.3185 72.916C26.1852 72.7426 26.1638 72.328 26.1452 71.928C26.1292 71.644 26.1132 71.36 26.0705 71.0866C25.7852 69.2213 24.2638 67.5493 22.1905 66.828C21.0518 66.4333 19.9238 66.356 18.9185 66.6093C17.6572 66.9253 16.6198 67.7706 16.1438 68.8706C15.8318 69.5893 15.7905 70.3426 15.7878 70.9186C15.7825 71.6186 15.8692 72.6333 16.6465 73.3333C17.0172 73.668 17.4972 73.8787 18.0692 73.9587C19.1225 74.108 20.2318 73.716 21.0505 72.916C21.8692 72.1146 22.2825 71.0093 22.1599 69.9587L19.8825 70.228C19.9238 70.5786 19.7612 70.9706 19.4465 71.2773C19.1345 71.5826 18.7412 71.7373 18.3892 71.688C18.2585 71.6707 18.1932 71.6386 18.1785 71.628C18.1772 71.6253 18.0772 71.5053 18.0812 70.9293C18.0825 70.548 18.1038 70.116 18.2492 69.7813C18.4398 69.3386 18.9105 68.9746 19.4772 68.8333C20.1972 68.652 20.9399 68.8213 21.4372 68.9946C22.4852 69.3586 23.6239 70.2546 23.8039 71.432C23.8345 71.632 23.8425 71.84 23.8532 72.0466C23.8892 72.7226 23.9332 73.564 24.4892 74.2986C25.3492 75.44 26.8225 75.5133 27.6132 75.552C27.8198 75.5613 28.0585 75.5733 28.3198 75.5733Z" fill="#F9DB1B"/>
<path d="M37.9999 73.648H36.9065V3.74799H38.1145C38.0399 4.22798 37.9999 4.75597 37.9999 5.3293V73.648Z" fill="#EED11A"/>
<path d="M48.4132 79.328C40.6865 79.328 37.9998 73.6693 37.9998 73.6693V73.648V5.3293C37.9998 4.75597 38.0398 4.22799 38.1145 3.74799H38.1198C38.5118 1.25199 39.8625 0.00130812 41.6652 0.00130812C42.5412 0.00130812 43.5238 0.297329 44.5545 0.889329C44.6052 0.918662 44.6558 0.947985 44.7078 0.978652C47.8198 2.84665 45.8878 6.38933 51.0732 6.38933C51.9265 6.38933 52.9745 6.29332 54.2705 6.07732C54.9945 5.95732 55.6505 5.89997 56.2452 5.89997C60.6932 5.89997 61.6412 9.04931 61.6398 11.736C61.6385 13.736 61.1118 15.4813 61.1118 15.4813C68.0985 15.7987 70.0612 18.1333 70.0598 20.6573C70.0572 23.8947 66.8225 27.4453 66.8225 27.4453C71.8758 29.2693 73.4238 31.5293 73.4225 33.6147C73.4212 36.912 69.5425 39.7706 69.5425 39.7706C73.0105 42.1213 74.2078 44.34 74.2065 46.288C74.2038 50.6493 68.1812 53.6386 68.1812 53.6386C69.4198 55.1453 69.9252 56.4306 69.9278 57.528C69.9385 62.3733 60.1145 63.5187 60.1145 63.5187C62.6252 65.288 63.5825 67.1986 63.5812 69.036C63.5772 73.0066 59.0945 76.6373 56.1065 77.7626C53.1158 78.888 50.5692 79.328 48.4132 79.328ZM42.1612 70.816C41.8385 72.052 41.9398 73.7373 43.1838 74.7666C44.0105 75.452 45.0532 75.5733 45.8878 75.5733C46.1478 75.5733 46.3865 75.5613 46.5932 75.552C47.3838 75.5133 48.8572 75.44 49.7185 74.2986C50.2732 73.564 50.3185 72.7227 50.3532 72.0467C50.3638 71.84 50.3732 71.632 50.4025 71.432C50.5825 70.2546 51.7212 69.3586 52.7705 68.9933C53.1172 68.8733 53.5812 68.7547 54.0732 68.7547C54.2892 68.7547 54.5105 68.7786 54.7292 68.8333C55.2958 68.9746 55.7665 69.3387 55.9572 69.7813C56.1038 70.116 56.1238 70.548 56.1252 70.9293C56.1292 71.5053 56.0292 71.6253 56.0278 71.628C56.0132 71.6386 55.9478 71.6707 55.8185 71.688C55.7758 71.6947 55.7318 71.6973 55.6878 71.6973C55.3718 71.6973 55.0345 71.5467 54.7598 71.2773C54.4452 70.9707 54.2838 70.5786 54.3252 70.228L52.0465 69.9587C51.9238 71.0093 52.3372 72.1147 53.1558 72.916C53.8598 73.604 54.7798 73.9907 55.6918 73.9907C55.8412 73.9907 55.9892 73.98 56.1372 73.9587C56.7092 73.88 57.1892 73.668 57.5612 73.3333C58.3385 72.6333 58.4238 71.6187 58.4185 70.9187C58.4172 70.3427 58.3745 69.5893 58.0625 68.8706C57.5878 67.7706 56.5505 66.9253 55.2878 66.6093C54.9012 66.512 54.4945 66.4626 54.0772 66.4626C53.4105 66.4626 52.7145 66.5853 52.0158 66.828C49.9425 67.5493 48.4212 69.2213 48.1358 71.0867C48.0945 71.36 48.0772 71.644 48.0625 71.928C48.0425 72.328 48.0212 72.7427 47.8878 72.916C47.6718 73.2013 46.8372 73.2426 46.4812 73.2613C46.2838 73.2706 46.0852 73.2787 45.8932 73.2787C45.3798 73.2787 44.9145 73.2226 44.6465 73C44.2585 72.68 44.2358 71.9426 44.3798 71.3946L42.1612 70.816ZM45.4705 63.1773L43.2318 63.6733C43.5025 64.8973 44.6705 65.6106 46.4358 65.632L46.5345 65.6333C49.2158 65.6333 50.0198 64.352 50.2598 63.5827C50.5105 62.7787 50.3478 61.876 49.7758 60.904C49.4865 60.412 49.0065 59.708 48.2039 59.2893C47.5919 58.9693 46.9732 58.8946 46.3892 58.8946C46.1345 58.8946 45.8865 58.9093 45.6478 58.9227C45.4318 58.9333 45.2225 58.9453 45.0278 58.9453C44.9038 58.9453 44.7852 58.9413 44.6732 58.928C44.1118 58.864 43.5545 58.4987 43.1825 57.9493C42.8105 57.4013 42.6772 56.748 42.8252 56.204C42.8985 55.9333 43.0318 55.6413 43.2465 55.2867C43.5118 54.844 43.7545 54.5573 44.0065 54.388C44.2158 54.248 44.4918 54.1467 44.8532 54.0773C45.1172 54.028 45.3852 54.0026 45.6532 54.0026C46.4998 54.0026 47.3425 54.2493 48.0518 54.7187C48.9865 55.3387 49.6558 56.3213 49.8905 57.4173L52.1318 56.9373C51.7732 55.2613 50.7478 53.756 49.3198 52.808C48.2345 52.088 46.9438 51.7107 45.6465 51.7107C45.2372 51.7107 44.8265 51.748 44.4225 51.824C43.7518 51.9533 43.1998 52.168 42.7278 52.484C42.0172 52.9613 41.5612 53.6373 41.2812 54.1026C40.9558 54.6453 40.7438 55.1213 40.6118 55.6013C40.2852 56.8 40.5305 58.1253 41.2838 59.236C42.0398 60.348 43.1785 61.0666 44.4158 61.2066C44.6225 61.2293 44.8292 61.2373 45.0305 61.2373C45.2892 61.2373 45.5398 61.224 45.7732 61.212C45.9878 61.2013 46.1918 61.1893 46.3798 61.1893C46.6838 61.1893 46.9452 61.2187 47.1425 61.3213C47.3545 61.432 47.5705 61.676 47.7998 62.068C48.0545 62.5013 48.1079 62.7826 48.0705 62.9C48.0052 63.1093 47.4558 63.34 46.6078 63.34C46.5598 63.34 46.5118 63.34 46.4625 63.3386C45.8452 63.3306 45.5092 63.1907 45.4705 63.1773ZM54.4372 59.5413L52.6972 61.0333C53.5918 62.0786 54.9892 62.1306 55.8252 62.1306H55.9665C56.3558 62.1293 57.0785 62.128 57.6745 61.648C58.2492 61.1853 58.4172 60.5093 58.5065 60.1453L59.1212 57.6666C59.1732 57.4533 59.3145 56.8907 59.4692 56.792C59.5638 56.7333 59.8345 56.724 60.0452 56.724C60.0945 56.724 60.1398 56.724 60.1785 56.724C60.5532 56.7267 61.0212 56.7306 61.2585 56.8706C61.4505 56.9853 61.6438 57.2787 61.8492 57.5867C62.1145 57.988 62.4185 58.4427 62.8892 58.812L64.3025 57.0066C64.1225 56.8666 63.9465 56.6 63.7612 56.3187C63.4532 55.856 63.0705 55.28 62.4265 54.8986C61.6598 54.4426 60.8132 54.436 60.1972 54.4306C60.1505 54.4306 60.1025 54.4306 60.0532 54.4306C59.5545 54.4306 58.8652 54.4587 58.2412 54.8547C57.3105 55.4467 57.0505 56.4893 56.8945 57.1133L56.2798 59.5946L56.2172 59.8306L55.9585 59.8373C55.5438 59.836 54.6945 59.8427 54.4372 59.5413ZM55.3052 43.6933C54.8239 43.6933 54.2265 43.788 53.7492 44.308C53.2078 44.9013 53.2265 45.664 53.2345 45.9907C53.2532 46.696 53.3198 47.5267 53.6612 48.3413C54.0665 49.312 54.8038 50.0453 55.6852 50.352C56.0865 50.492 56.4838 50.5386 56.8585 50.5386C57.1665 50.5386 57.4625 50.508 57.7372 50.4747C58.9425 50.3267 60.4638 50.0133 61.5292 48.8946C62.5198 47.8573 62.7892 46.4507 62.9052 45.4827C62.9212 45.3533 62.9358 45.2587 62.9492 45.188C63.0358 45.1853 63.1225 45.1853 63.2078 45.1853C63.6878 45.1853 64.1638 45.216 64.6358 45.2733C64.8412 45.3 64.9678 45.324 65.0105 45.348C65.0398 45.376 65.1532 45.592 65.1252 46.0853C65.1172 46.216 65.1052 46.3453 65.0945 46.476C65.0425 47.06 64.9772 47.7853 65.2532 48.5147L67.3972 47.7053C67.3092 47.4666 67.3412 47.084 67.3785 46.68C67.3905 46.524 67.4052 46.368 67.4132 46.216C67.4892 44.9333 67.0705 43.9373 66.2385 43.412C65.8065 43.1373 65.3478 43.0506 64.9185 42.9973C64.3465 42.9266 63.7652 42.892 63.1825 42.892C63.0478 42.892 62.9132 42.8946 62.7772 42.8973C62.5945 42.904 62.2532 42.9146 61.8972 43.068C60.8278 43.532 60.6878 44.7093 60.6278 45.2107C60.5052 46.2307 60.2652 46.8987 59.8705 47.312C59.3052 47.904 58.2838 48.0973 57.4585 48.1973C57.2638 48.2213 57.0558 48.2453 56.8638 48.2453C56.7065 48.2453 56.5612 48.2293 56.4412 48.188C56.1812 48.0973 55.9265 47.816 55.7745 47.456C55.5892 47.012 55.5452 46.4733 55.5292 45.996L55.5665 46C55.6985 46.0093 55.8452 46.0187 56.0025 46.0187C56.1905 46.0187 56.3932 46.004 56.6025 45.9587L56.1078 43.72C56.0878 43.724 56.0558 43.7253 56.0172 43.7253C55.9305 43.7253 55.8105 43.7173 55.7225 43.712C55.6012 43.7027 55.4585 43.6933 55.3052 43.6933ZM42.8838 39.9C42.8185 39.9 42.7545 39.9013 42.6905 39.9026C42.2878 39.9093 41.8212 39.9346 41.3478 40.1386C40.5065 40.5066 39.9185 41.3507 39.8132 42.3427C39.7398 43.0227 39.8878 43.7533 40.2558 44.5147C41.2838 46.6427 43.5625 48.092 45.9238 48.1213L45.9998 48.1227C47.4572 48.1227 48.8385 47.5946 49.7998 46.6666C50.9345 45.5706 51.4225 43.932 51.0412 42.4946L48.8252 43.0813C48.9932 43.7187 48.7438 44.4973 48.2065 45.0173C47.6852 45.5213 46.9119 45.8293 46.0705 45.8293C46.0319 45.8293 45.9918 45.8293 45.9532 45.828C44.4625 45.8093 42.9692 44.8587 42.3212 43.5173C42.1425 43.148 42.0652 42.8347 42.0918 42.5867C42.1118 42.3973 42.2145 42.264 42.2638 42.2413C42.3558 42.2013 42.6092 42.1973 42.7318 42.1946C42.7732 42.1946 42.8305 42.192 42.8972 42.192C43.1278 42.192 43.4772 42.208 43.6878 42.296C43.8825 42.7706 43.9558 43.2973 43.8945 43.8053L46.1719 44.0787C46.2972 43.0373 46.1012 41.948 45.6185 41.0147L45.5305 40.8413L45.3892 40.708C44.6665 40.0213 43.7452 39.9 42.8838 39.9ZM55.9772 35.5346C55.6732 36.6133 55.8972 37.792 56.5785 38.6867C57.2545 39.5733 58.3239 40.1026 59.4385 40.1026H59.4572C60.2385 40.0973 60.9412 39.836 61.5065 39.6253C61.9132 39.4747 62.5252 39.248 62.9625 38.6853C63.4505 38.0547 63.4825 37.284 63.4972 36.9147C63.5305 36.084 63.4958 35.0146 62.9185 34.0973C62.5172 33.464 61.9638 33.06 61.4772 32.704C61.2038 32.5053 60.9465 32.3173 60.7625 32.1213C60.3678 31.6987 60.1945 31.056 60.3065 30.4853C60.4905 30.2707 60.6038 30.048 60.6865 29.88L60.7292 29.7946L60.8985 29.7973C61.6372 29.8626 62.3425 30.256 62.7852 30.8493L64.6225 29.476C63.7945 28.368 62.4785 27.636 61.0998 27.5133C60.9945 27.504 60.8945 27.5 60.7985 27.5C59.9585 27.5 59.4412 27.816 59.1492 28.1C58.8852 28.3573 58.7425 28.6413 58.6372 28.8493L58.5758 28.9733L58.3318 29.1386L58.2065 29.4946C57.7012 30.9306 58.0478 32.576 59.0892 33.6893C59.4198 34.0427 59.7958 34.316 60.1238 34.5573C60.4945 34.8253 60.8118 35.0587 60.9785 35.3213C61.2172 35.7027 61.2265 36.324 61.2065 36.8227C61.1932 37.152 61.1625 37.256 61.1558 37.272C61.0932 37.3333 60.8332 37.4307 60.7078 37.476C60.2705 37.6387 59.8198 37.8067 59.4438 37.8093C59.0772 37.7867 58.6412 37.6093 58.4025 37.2973C58.1638 36.9826 58.0772 36.5347 58.1852 36.1573L55.9772 35.5346ZM49.8545 35.4013L48.7812 37.428C49.5745 37.8466 50.3718 38.056 51.1105 38.056C51.8452 38.056 52.5199 37.8493 53.0705 37.4346C54.0025 36.7333 54.4878 35.472 54.3358 34.1413C54.2198 33.108 53.7772 32.212 53.3892 31.4213L53.2998 31.24L53.1532 31.1C52.4105 30.388 51.4078 30.0293 50.4065 30.0293C49.4865 30.0293 48.5665 30.332 47.8492 30.9427C47.6185 31.1387 47.4118 31.3627 47.2092 31.5893C47.0745 31.7373 46.9438 31.8867 46.7932 32.0173C46.4905 32.2747 46.0812 32.4066 45.6745 32.4066C45.3452 32.4066 45.0158 32.32 44.7478 32.1413C44.2932 31.8413 43.9265 31.284 43.6585 30.4893C43.5332 30.1213 43.4398 29.7466 43.3812 29.372C43.2678 28.6693 43.3452 28.1093 43.5905 27.876C43.8118 27.6627 44.2505 27.6093 44.6758 27.6093C44.8492 27.6093 45.0198 27.6173 45.1732 27.628C45.7092 27.6666 46.3172 27.7266 46.7492 27.9706C47.0212 28.124 47.2265 28.4013 47.2092 28.5893L49.4905 28.816C49.6012 27.704 48.9678 26.5893 47.8772 25.9733C47.0678 25.5173 46.1772 25.4 45.3318 25.3413C45.1265 25.3266 44.9092 25.316 44.6852 25.316C43.7785 25.316 42.7745 25.4827 42.0052 26.2173C41.1785 27.0093 40.8705 28.228 41.1172 29.7373C41.1972 30.2346 41.3198 30.7333 41.4852 31.2227C41.9212 32.512 42.5932 33.464 43.4798 34.052C44.1358 34.488 44.9052 34.7026 45.6758 34.7026C46.6158 34.7026 47.5545 34.384 48.2838 33.7587C48.5105 33.564 48.7132 33.3453 48.9132 33.1227C49.0478 32.972 49.1798 32.82 49.3332 32.6893C49.6198 32.4467 50.0119 32.3266 50.4052 32.3266C50.7772 32.3266 51.1492 32.4333 51.4358 32.6453C51.7212 33.232 51.9945 33.8306 52.0585 34.4C52.1158 34.912 51.9692 35.3933 51.6945 35.6013C51.5452 35.7146 51.3438 35.7626 51.1198 35.7626C50.7212 35.7626 50.2492 35.6106 49.8545 35.4013ZM48.2412 22.248C48.1985 23.3107 48.7732 24.3347 49.7025 24.8547C50.4692 25.284 51.3105 25.292 51.9252 25.2973L52.1705 25.2986C52.8825 25.2986 53.7812 25.252 54.5838 24.7507C55.3785 24.2547 55.9332 23.3933 56.1438 22.3266C56.2558 21.748 56.2585 21.1787 56.2292 20.6453C56.3878 20.4453 56.5172 20.188 56.5985 19.864C56.7745 19.8813 57.0238 19.976 57.1985 20.0413C57.8878 20.3053 58.8345 20.7306 59.0625 21.3693L61.2212 20.5973C60.6825 19.0853 59.2238 18.3613 58.0145 17.9C57.5772 17.732 57.0998 17.568 56.5612 17.568C56.5052 17.568 56.4465 17.5693 56.3878 17.5733C55.4945 17.6266 54.7185 18.1773 54.4478 18.9467L53.7998 18.9547L53.8972 20.1773C53.9452 20.792 53.9932 21.3747 53.8918 21.884C53.8092 22.308 53.6118 22.6533 53.3678 22.8066C53.0852 22.9826 52.6025 23.004 52.1598 23.004C52.0865 23.004 52.0145 23.004 51.9438 23.004C51.5385 23 51.0772 22.996 50.8225 22.8547C50.6492 22.7573 50.5238 22.5346 50.5318 22.3373L48.2412 22.248ZM44.9158 8.43865C44.4452 8.43865 43.9572 8.55199 43.5039 8.78266C42.7025 9.18799 42.1412 9.85066 41.6878 10.3853C41.3398 10.7987 40.9465 11.2666 40.6932 11.8706C40.3772 12.6226 40.3545 13.4013 40.3358 14.028C40.3118 14.9306 40.2825 15.9546 40.5372 16.968C40.8572 18.248 41.5772 19.2546 42.5625 19.8C43.1998 20.152 43.8772 20.284 44.5532 20.284C45.3798 20.284 46.2052 20.0906 46.9638 19.868C47.2092 19.796 47.6185 19.676 47.9719 19.3493C48.4505 18.904 48.5798 18.328 48.6345 17.9346C48.8265 16.5693 48.5038 15.124 47.7518 13.9693L47.6252 13.7787L47.3785 13.4187L47.5305 13.412C47.9478 13.436 48.3638 13.6373 48.6438 13.952L48.8545 14.2173C48.9878 14.392 49.1225 14.5667 49.2745 14.724C49.9158 15.3893 50.8225 15.7386 51.7305 15.7386C52.3265 15.7386 52.9225 15.588 53.4438 15.2773C54.7572 14.492 55.3932 12.7986 54.9252 11.3413L52.7412 12.044C52.8852 12.4907 52.6665 13.0693 52.2665 13.3093C52.1092 13.4026 51.9212 13.448 51.7292 13.448C51.4292 13.448 51.1238 13.3373 50.9265 13.1306L50.6798 12.8293C50.5758 12.692 50.4705 12.5546 50.3572 12.428C49.6718 11.6573 48.6905 11.1827 47.6638 11.1227C47.6078 11.1187 47.5505 11.1173 47.4945 11.1173C46.3572 11.1173 45.3932 11.732 45.1092 12.664C44.7972 13.68 45.3532 14.508 45.7212 15.056L45.8292 15.22C46.2838 15.9173 46.4785 16.7907 46.3625 17.6187L46.3572 17.656L46.3198 17.6666C45.7385 17.836 45.1145 17.9893 44.5625 17.9893C44.2318 17.9893 43.9278 17.9333 43.6745 17.7946C43.2558 17.5626 42.9238 17.0587 42.7612 16.412C42.5838 15.704 42.6065 14.884 42.6292 14.092C42.6438 13.612 42.6572 13.1173 42.8065 12.76C42.9265 12.476 43.1772 12.1786 43.4412 11.8653C43.7905 11.452 44.1532 11.024 44.5425 10.828C44.6758 10.7586 44.8185 10.732 44.9292 10.732C45.0172 10.732 45.0852 10.748 45.1145 10.776L46.6452 9.06664C46.1812 8.65197 45.5625 8.43865 44.9158 8.43865Z" fill="#EA6B19"/>
<path d="M52.1705 25.2986L51.9252 25.2973C51.3105 25.292 50.4692 25.284 49.7025 24.8547C48.7732 24.3347 48.1985 23.3107 48.2412 22.248L50.5319 22.3373C50.5239 22.5347 50.6492 22.7573 50.8225 22.8547C51.0772 22.996 51.5385 23 51.9438 23.004C52.0145 23.004 52.0865 23.004 52.1599 23.004C52.6025 23.004 53.0852 22.9827 53.3679 22.8067C53.6119 22.6533 53.8092 22.308 53.8919 21.884C53.9932 21.3747 53.9452 20.792 53.8972 20.1773L53.7999 18.9547L54.4478 18.9467C54.7185 18.1773 55.4945 17.6267 56.3879 17.5733C56.4465 17.5693 56.5052 17.568 56.5612 17.568C57.0999 17.568 57.5772 17.732 58.0145 17.9C59.2238 18.3613 60.6825 19.0853 61.2212 20.5973L59.0625 21.3693C58.8345 20.7306 57.8879 20.3053 57.1985 20.0413C57.0239 19.976 56.7745 19.8813 56.5985 19.864C56.5172 20.188 56.3879 20.4453 56.2292 20.6453C56.2585 21.1787 56.2558 21.748 56.1438 22.3266C55.9332 23.3933 55.3785 24.2547 54.5839 24.7507C53.7812 25.252 52.8825 25.2986 52.1705 25.2986Z" fill="#EED11A"/>
<path d="M59.4572 40.1026H59.4385C58.3239 40.1026 57.2545 39.5733 56.5785 38.6866C55.8972 37.792 55.6732 36.6133 55.9772 35.5346L58.1852 36.1573C58.0772 36.5347 58.1639 36.9826 58.4025 37.2973C58.6412 37.6093 59.0772 37.7866 59.4439 37.8093C59.8199 37.8066 60.2705 37.6386 60.7079 37.476C60.8332 37.4306 61.0932 37.3333 61.1559 37.272C61.1625 37.256 61.1932 37.152 61.2065 36.8227C61.2265 36.324 61.2172 35.7026 60.9785 35.3213C60.8119 35.0586 60.4945 34.8253 60.1239 34.5573C59.7959 34.316 59.4199 34.0427 59.0892 33.6893C58.0479 32.576 57.7012 30.9306 58.2065 29.4946L58.3319 29.1386L58.5759 28.9733L58.6372 28.8493C58.7425 28.6413 58.8852 28.3573 59.1492 28.1C59.4412 27.816 59.9585 27.5 60.7985 27.5C60.8945 27.5 60.9945 27.504 61.0999 27.5133C62.4785 27.636 63.7945 28.368 64.6225 29.476L62.7852 30.8493C62.3425 30.256 61.6372 29.8626 60.8985 29.7973L60.7292 29.7946L60.6865 29.88C60.6039 30.048 60.4905 30.2706 60.3065 30.4853C60.1945 31.056 60.3679 31.6986 60.7625 32.1213C60.9465 32.3173 61.2039 32.5053 61.4772 32.704C61.9639 33.06 62.5172 33.464 62.9185 34.0973C63.4959 35.0146 63.5305 36.084 63.4972 36.9146C63.4825 37.284 63.4505 38.0546 62.9625 38.6853C62.5252 39.248 61.9132 39.4747 61.5065 39.6253C60.9412 39.836 60.2385 40.0973 59.4572 40.1026Z" fill="#EED11A"/>
<path d="M56.8585 50.5386C56.4839 50.5386 56.0865 50.492 55.6852 50.352C54.8039 50.0453 54.0665 49.312 53.6612 48.3413C53.3199 47.5266 53.2532 46.696 53.2345 45.9907C53.2265 45.664 53.2079 44.9013 53.7492 44.308C54.2265 43.788 54.8239 43.6933 55.3052 43.6933C55.4585 43.6933 55.6012 43.7026 55.7225 43.712C55.8105 43.7173 55.9305 43.7253 56.0172 43.7253C56.0559 43.7253 56.0878 43.724 56.1078 43.72L56.6025 45.9587C56.3932 46.004 56.1905 46.0186 56.0025 46.0186C55.8452 46.0186 55.6985 46.0093 55.5665 46L55.5292 45.996C55.5452 46.4733 55.5892 47.012 55.7745 47.456C55.9265 47.816 56.1812 48.0973 56.4412 48.188C56.5612 48.2293 56.7065 48.2453 56.8639 48.2453C57.0559 48.2453 57.2639 48.2213 57.4585 48.1973C58.2839 48.0973 59.3052 47.904 59.8705 47.312C60.2652 46.8986 60.5052 46.2306 60.6279 45.2106C60.6879 44.7093 60.8279 43.532 61.8972 43.068C62.2532 42.9146 62.5945 42.904 62.7772 42.8973C62.9132 42.8946 63.0479 42.892 63.1825 42.892C63.7652 42.892 64.3465 42.9266 64.9185 42.9973C65.3479 43.0506 65.8065 43.1373 66.2385 43.412C67.0705 43.9373 67.4892 44.9333 67.4132 46.216C67.4052 46.368 67.3905 46.524 67.3785 46.68C67.3412 47.084 67.3092 47.4666 67.3972 47.7053L65.2532 48.5146C64.9772 47.7853 65.0425 47.06 65.0945 46.476C65.1052 46.3453 65.1172 46.216 65.1252 46.0853C65.1532 45.592 65.0398 45.376 65.0105 45.348C64.9678 45.324 64.8412 45.3 64.6359 45.2733C64.1639 45.216 63.6878 45.1853 63.2078 45.1853C63.1225 45.1853 63.0359 45.1853 62.9492 45.188C62.9359 45.2587 62.9212 45.3533 62.9052 45.4826C62.7892 46.4506 62.5199 47.8573 61.5292 48.8946C60.4639 50.0133 58.9425 50.3266 57.7372 50.4746C57.4625 50.508 57.1665 50.5386 56.8585 50.5386Z" fill="#EED11A"/>
<path d="M44.5532 20.284C43.8772 20.284 43.1999 20.152 42.5625 19.8C41.5772 19.2546 40.8572 18.248 40.5372 16.968C40.2826 15.9546 40.3119 14.9306 40.3359 14.028C40.3546 13.4013 40.3772 12.6227 40.6932 11.8707C40.9465 11.2667 41.3399 10.7987 41.6879 10.3853C42.1412 9.85067 42.7026 9.188 43.5039 8.78266C43.9572 8.552 44.4452 8.43865 44.9159 8.43865C45.5625 8.43865 46.1812 8.65198 46.6452 9.06665L45.1145 10.776C45.0852 10.748 45.0172 10.732 44.9292 10.732C44.8185 10.732 44.6759 10.7586 44.5425 10.828C44.1532 11.024 43.7905 11.452 43.4412 11.8653C43.1772 12.1786 42.9265 12.476 42.8065 12.76C42.6572 13.1173 42.6439 13.612 42.6292 14.092C42.6065 14.884 42.5839 15.704 42.7612 16.412C42.9239 17.0587 43.2559 17.5626 43.6745 17.7946C43.9279 17.9333 44.2319 17.9893 44.5625 17.9893C45.1145 17.9893 45.7385 17.836 46.3199 17.6666L46.3572 17.656L46.3625 17.6187C46.4785 16.7907 46.2839 15.9173 45.8292 15.22L45.7212 15.056C45.3532 14.508 44.7972 13.68 45.1092 12.664C45.3932 11.732 46.3572 11.1173 47.4945 11.1173C47.5505 11.1173 47.6079 11.1187 47.6639 11.1227C48.6905 11.1827 49.6719 11.6573 50.3572 12.428C50.4705 12.5546 50.5759 12.692 50.6799 12.8293L50.9265 13.1306C51.1239 13.3373 51.4292 13.448 51.7292 13.448C51.9212 13.448 52.1092 13.4027 52.2666 13.3093C52.6666 13.0693 52.8852 12.4907 52.7412 12.044L54.9252 11.3413C55.3932 12.7987 54.7572 14.492 53.4439 15.2773C52.9225 15.588 52.3265 15.7387 51.7305 15.7387C50.8225 15.7387 49.9159 15.3893 49.2745 14.724C49.1225 14.5667 48.9879 14.392 48.8545 14.2173L48.6439 13.952C48.3639 13.6373 47.9479 13.436 47.5305 13.412L47.3785 13.4187L47.6252 13.7787L47.7519 13.9693C48.5039 15.124 48.8266 16.5693 48.6346 17.9346C48.5799 18.328 48.4506 18.904 47.9719 19.3493C47.6186 19.676 47.2092 19.796 46.9639 19.868C46.2052 20.0906 45.3799 20.284 44.5532 20.284Z" fill="#EED11A"/>
<path d="M51.1105 38.056C50.3718 38.056 49.5745 37.8466 48.7812 37.428L49.8545 35.4013C50.2492 35.6106 50.7212 35.7626 51.1199 35.7626C51.3439 35.7626 51.5452 35.7146 51.6945 35.6013C51.9692 35.3933 52.1159 34.912 52.0585 34.4C51.9945 33.8306 51.7212 33.232 51.4359 32.6453C51.1492 32.4333 50.7772 32.3266 50.4052 32.3266C50.0119 32.3266 49.6199 32.4467 49.3332 32.6893C49.1799 32.82 49.0478 32.972 48.9132 33.1227C48.7132 33.3453 48.5105 33.564 48.2839 33.7587C47.5545 34.384 46.6158 34.7026 45.6758 34.7026C44.9052 34.7026 44.1358 34.488 43.4798 34.052C42.5932 33.464 41.9212 32.512 41.4852 31.2227C41.3199 30.7333 41.1972 30.2346 41.1172 29.7373C40.8705 28.228 41.1785 27.0093 42.0052 26.2173C42.7745 25.4827 43.7785 25.316 44.6852 25.316C44.9092 25.316 45.1265 25.3267 45.3319 25.3413C46.1772 25.4 47.0678 25.5173 47.8772 25.9733C48.9678 26.5893 49.6012 27.704 49.4905 28.816L47.2092 28.5893C47.2265 28.4013 47.0212 28.124 46.7492 27.9706C46.3172 27.7266 45.7092 27.6666 45.1732 27.628C45.0198 27.6173 44.8492 27.6093 44.6758 27.6093C44.2505 27.6093 43.8119 27.6627 43.5905 27.876C43.3452 28.1093 43.2678 28.6693 43.3812 29.372C43.4398 29.7466 43.5332 30.1213 43.6585 30.4893C43.9265 31.284 44.2932 31.8413 44.7478 32.1413C45.0158 32.32 45.3452 32.4067 45.6745 32.4067C46.0812 32.4067 46.4905 32.2747 46.7932 32.0173C46.9439 31.8867 47.0745 31.7373 47.2092 31.5893C47.4118 31.3627 47.6185 31.1387 47.8492 30.9427C48.5665 30.332 49.4865 30.0293 50.4065 30.0293C51.4078 30.0293 52.4105 30.388 53.1532 31.1L53.2999 31.24L53.3892 31.4213C53.7772 32.212 54.2199 33.108 54.3359 34.1413C54.4879 35.472 54.0025 36.7333 53.0705 37.4346C52.5199 37.8493 51.8452 38.056 51.1105 38.056Z" fill="#EED11A"/>
<path d="M45.9999 48.1227L45.9239 48.1213C43.5625 48.092 41.2839 46.6426 40.2559 44.5146C39.8879 43.7533 39.7398 43.0226 39.8132 42.3426C39.9185 41.3506 40.5065 40.5066 41.3478 40.1386C41.8212 39.9346 42.2879 39.9093 42.6905 39.9026C42.7545 39.9013 42.8185 39.9 42.8839 39.9C43.7452 39.9 44.6665 40.0213 45.3892 40.708L45.5305 40.8413L45.6185 41.0146C46.1012 41.948 46.2972 43.0373 46.1719 44.0786L43.8945 43.8053C43.9559 43.2973 43.8825 42.7706 43.6879 42.296C43.4772 42.208 43.1279 42.192 42.8972 42.192C42.8305 42.192 42.7732 42.1946 42.7319 42.1946C42.6092 42.1973 42.3559 42.2013 42.2639 42.2413C42.2145 42.264 42.1119 42.3973 42.0919 42.5866C42.0652 42.8346 42.1425 43.148 42.3212 43.5173C42.9692 44.8586 44.4625 45.8093 45.9532 45.828C45.9919 45.8293 46.0319 45.8293 46.0705 45.8293C46.9119 45.8293 47.6852 45.5213 48.2065 45.0173C48.7438 44.4973 48.9932 43.7186 48.8252 43.0813L51.0412 42.4946C51.4225 43.932 50.9345 45.5706 49.7999 46.6666C48.8385 47.5946 47.4572 48.1227 45.9999 48.1227Z" fill="#EED11A"/>
<path d="M46.5345 65.6333L46.4359 65.632C44.6705 65.6107 43.5025 64.8973 43.2319 63.6733L45.4705 63.1773C45.5092 63.1907 45.8452 63.3307 46.4625 63.3387C46.5119 63.34 46.5598 63.34 46.6078 63.34C47.4558 63.34 48.0052 63.1093 48.0705 62.9C48.1079 62.7827 48.0545 62.5013 47.7999 62.068C47.5705 61.676 47.3545 61.432 47.1425 61.3214C46.9452 61.2187 46.6838 61.1894 46.3798 61.1894C46.1918 61.1894 45.9878 61.2013 45.7732 61.212C45.5398 61.224 45.2892 61.2373 45.0305 61.2373C44.8292 61.2373 44.6225 61.2293 44.4158 61.2067C43.1785 61.0667 42.0398 60.348 41.2838 59.236C40.5305 58.1253 40.2852 56.8 40.6118 55.6013C40.7438 55.1213 40.9558 54.6453 41.2812 54.1027C41.5612 53.6373 42.0172 52.9613 42.7279 52.484C43.1999 52.168 43.7519 51.9534 44.4225 51.824C44.8265 51.748 45.2372 51.7107 45.6465 51.7107C46.9438 51.7107 48.2345 52.088 49.3198 52.808C50.7478 53.756 51.7732 55.2613 52.1319 56.9373L49.8905 57.4173C49.6559 56.3213 48.9865 55.3387 48.0518 54.7187C47.3425 54.2494 46.4998 54.0027 45.6532 54.0027C45.3852 54.0027 45.1172 54.028 44.8532 54.0773C44.4918 54.1467 44.2158 54.248 44.0065 54.388C43.7545 54.5574 43.5118 54.844 43.2465 55.2867C43.0318 55.6414 42.8985 55.9333 42.8252 56.204C42.6772 56.748 42.8105 57.4013 43.1825 57.9493C43.5545 58.4987 44.1118 58.864 44.6732 58.928C44.7852 58.9413 44.9039 58.9453 45.0279 58.9453C45.2225 58.9453 45.4318 58.9334 45.6478 58.9227C45.8865 58.9094 46.1345 58.8947 46.3892 58.8947C46.9732 58.8947 47.5919 58.9694 48.2039 59.2894C49.0065 59.708 49.4865 60.412 49.7758 60.904C50.3478 61.876 50.5105 62.7787 50.2599 63.5827C50.0199 64.352 49.2159 65.6333 46.5345 65.6333Z" fill="#EED11A"/>
<path d="M55.9665 62.1306H55.8252C54.9892 62.1306 53.5919 62.0786 52.6972 61.0333L54.4372 59.5413C54.6945 59.8427 55.5439 59.836 55.9585 59.8373L56.2172 59.8306L56.2799 59.5946L56.8945 57.1133C57.0505 56.4893 57.3105 55.4467 58.2412 54.8547C58.8652 54.4587 59.5545 54.4306 60.0532 54.4306C60.1025 54.4306 60.1505 54.4306 60.1972 54.4306C60.8132 54.436 61.6599 54.4426 62.4265 54.8986C63.0705 55.28 63.4532 55.856 63.7612 56.3187C63.9465 56.6 64.1225 56.8667 64.3025 57.0067L62.8892 58.812C62.4185 58.4427 62.1145 57.988 61.8492 57.5867C61.6439 57.2787 61.4505 56.9853 61.2585 56.8707C61.0212 56.7307 60.5532 56.7267 60.1785 56.724C60.1399 56.724 60.0945 56.724 60.0452 56.724C59.8345 56.724 59.5639 56.7333 59.4692 56.792C59.3145 56.8907 59.1732 57.4533 59.1212 57.6666L58.5065 60.1453C58.4172 60.5093 58.2492 61.1853 57.6745 61.648C57.0785 62.128 56.3559 62.1293 55.9665 62.1306Z" fill="#EED11A"/>
<path d="M45.8879 75.5733C45.0532 75.5733 44.0105 75.452 43.1839 74.7666C41.9399 73.7373 41.8385 72.052 42.1612 70.816L44.3799 71.3946C44.2359 71.9426 44.2585 72.68 44.6465 73C44.9145 73.2226 45.3799 73.2786 45.8932 73.2786C46.0852 73.2786 46.2839 73.2706 46.4812 73.2613C46.8372 73.2426 47.6719 73.2013 47.8879 72.916C48.0212 72.7426 48.0425 72.328 48.0625 71.928C48.0772 71.644 48.0945 71.36 48.1359 71.0866C48.4212 69.2213 49.9425 67.5493 52.0159 66.828C52.7145 66.5853 53.4105 66.4626 54.0772 66.4626C54.4945 66.4626 54.9012 66.512 55.2879 66.6093C56.5505 66.9253 57.5879 67.7706 58.0625 68.8706C58.3745 69.5893 58.4172 70.3426 58.4185 70.9186C58.4239 71.6186 58.3385 72.6333 57.5612 73.3333C57.1892 73.668 56.7092 73.88 56.1372 73.9587C55.9892 73.98 55.8412 73.9907 55.6919 73.9907C54.7799 73.9907 53.8599 73.604 53.1559 72.916C52.3372 72.1146 51.9239 71.0093 52.0465 69.9587L54.3252 70.228C54.2839 70.5786 54.4452 70.9706 54.7599 71.2773C55.0345 71.5466 55.3719 71.6973 55.6879 71.6973C55.7319 71.6973 55.7759 71.6947 55.8185 71.688C55.9479 71.6707 56.0132 71.6386 56.0279 71.628C56.0292 71.6253 56.1292 71.5053 56.1252 70.9293C56.1239 70.548 56.1039 70.116 55.9572 69.7813C55.7665 69.3386 55.2959 68.9746 54.7292 68.8333C54.5105 68.7786 54.2892 68.7547 54.0732 68.7547C53.5812 68.7547 53.1172 68.8733 52.7705 68.9933C51.7212 69.3586 50.5825 70.2546 50.4025 71.432C50.3732 71.632 50.3639 71.84 50.3532 72.0466C50.3185 72.7226 50.2732 73.564 49.7185 74.2986C48.8572 75.44 47.3839 75.5133 46.5932 75.552C46.3865 75.5613 46.1479 75.5733 45.8879 75.5733Z" fill="#EED11A"/>
</svg>
