<svg width="130" height="70" viewBox="0 0 80 120" fill="none" xmlns="http://www.w3.org/2000/svg">
<path d="M40.0009 118.667C61.3206 118.667 78.6665 101.32 78.6665 79.9992V40.0122H1.33252V79.9992C1.33252 101.32 18.6784 118.667 40.0009 118.667Z" fill="white"/>
<path d="M0 0V79.9991C0 102.089 17.9088 120 40.0014 120C62.094 120 80 102.089 80 79.9991V0H0ZM78.667 41.3255V79.9991C78.667 101.32 61.3211 118.667 40.0014 118.667C18.6817 118.667 1.33301 101.32 1.33301 79.9991V40.012H78.667V41.3255Z" fill="#0A0A0A"/>
<path d="M65.6757 66.8455C58.3058 64.8794 50.4671 65.6281 43.6111 68.9531C45.5868 75.8012 45.3325 83.0927 42.8849 89.7889C40.437 96.485 35.9205 102.245 29.9785 106.247C34.9429 107.069 40.0338 106.696 44.8228 105.16C49.6115 103.624 53.9578 100.969 57.4956 97.4189C61.4283 93.4721 64.2519 88.5743 65.6869 83.2113C67.1218 77.8483 67.1179 72.2065 65.6757 66.8455Z" fill="#32AE64"/>
<path d="M39.7208 71.2203C37.917 63.8555 33.3375 57.455 26.9228 53.3344C22.7832 55.9747 19.3681 59.591 16.9821 63.8599C14.5961 68.1288 13.3141 72.9175 13.2502 77.7979C13.1864 82.678 14.343 87.4981 16.6164 91.8267C18.89 96.1556 22.2097 99.8585 26.2787 102.605C26.4971 102.752 26.6904 102.924 26.9088 103.066C32.1341 99.7522 36.1808 94.8979 38.4788 89.1856C40.7771 83.4733 41.2115 77.19 39.7208 71.2203Z" fill="#32AE64"/>
<path d="M15.3575 27.3004C15.3331 28.7404 14.593 29.4624 13.1368 29.4663H12.8567C11.3949 29.4663 10.648 28.7432 10.6164 27.2976V23.4099H6.67615V27.5891C6.70051 29.3089 7.23343 30.6798 8.27519 31.7017C9.27411 32.6719 10.5998 33.2406 11.997 33.2984V33.3234H13.9825V33.2984C15.3858 33.247 16.7202 32.6811 17.7267 31.71C18.7648 30.6862 19.2977 29.3153 19.3257 27.5975V6.67926H15.3575V27.3004Z" fill="white"/>
<path d="M55.9245 21.0577L52.6816 20.805C51.7258 20.6995 51.0593 20.4598 50.6821 20.0858C50.493 19.9514 50.3407 19.7723 50.239 19.5646C50.1374 19.3571 50.0895 19.1278 50.0996 18.8973C50.0903 18.5671 50.1548 18.2392 50.2883 17.9368C50.4219 17.6344 50.6216 17.3647 50.8725 17.1479C51.3626 16.6952 52.2251 16.4675 53.4545 16.4675C54.4333 16.4492 55.4064 16.6161 56.3222 16.959C57.1735 17.327 57.9781 17.7932 58.7193 18.3475L61.1501 15.4151C60.1974 14.5648 59.1066 13.8806 57.924 13.3907C57.2707 13.1467 56.5969 12.9609 55.9105 12.8354C55.1062 12.7124 54.2935 12.6538 53.4797 12.6604C51.3962 12.6604 49.6759 13.1789 48.3185 14.2155C46.9259 15.2504 46.2173 16.8044 46.193 18.8779C46.2173 20.6015 46.7578 21.9427 47.8144 22.9016C48.871 23.8604 50.2096 24.4297 51.8303 24.6093L55.286 24.9453C55.9049 24.9409 56.5123 25.1094 57.0391 25.4313C57.4667 25.7181 57.6804 26.2235 57.6804 26.9475C57.6899 27.3315 57.5952 27.7108 57.4059 28.046C57.2166 28.3812 56.9402 28.6597 56.605 28.8524C55.7646 29.3375 54.8015 29.5736 53.8298 29.5327C51.3018 29.5327 49.239 28.6711 47.6408 26.9475L44.902 29.7243C47.4504 32.1311 50.318 33.3343 53.5049 33.3343C55.8553 33.3065 57.782 32.7511 59.285 31.6682C60.788 30.5852 61.5598 29.0745 61.601 27.1363C61.601 25.4702 61.1801 24.0892 60.338 22.9932C59.4343 21.8658 57.9632 21.2207 55.9245 21.0577Z" fill="white"/>
<path d="M73.3264 15.8096V12.6607H70.4364V6.67926H66.4653V12.6607H64.4714V15.8096H66.4653V28.2917C66.4653 29.9023 66.9218 31.1333 67.8348 31.9849C68.2823 32.4295 68.8171 32.7777 69.4066 33.0082C69.9958 33.2384 70.6265 33.3456 71.2597 33.3234H73.3264V29.4691H71.8422C70.8732 29.493 70.4064 28.9876 70.442 27.9529V15.8096H73.3264Z" fill="white"/>
<path d="M36.6884 24.8386C36.6884 26.2179 36.3151 27.2953 35.5682 28.0709C35.1985 28.4394 34.7589 28.7321 34.2747 28.9317C33.7905 29.1314 33.2713 29.2341 32.7467 29.2341C32.2225 29.2341 31.703 29.1314 31.2188 28.9317C30.7346 28.7321 30.2952 28.4394 29.9253 28.0709C29.1784 27.297 28.8051 26.2196 28.8051 24.8386V12.662H24.8257V26.2687C24.8501 28.5735 25.5799 30.3146 27.0157 31.492C28.205 32.6428 29.7903 33.3028 31.4515 33.3386H34.0335C35.6948 33.3028 37.2804 32.6428 38.4694 31.492C39.9069 30.3146 40.637 28.5735 40.6594 26.2687V12.662H36.6884V24.8386Z" fill="white"/>
</svg>
