<svg width="160" height="100" viewBox="0 0 160 160" fill="none" xmlns="http://www.w3.org/2000/svg">
<rect x="6.86568" y="6.86574" width="152.239" height="152.239" fill="#047E78" stroke="#F2F2F2" stroke-width="1.79104"/>
<rect x="0.895522" y="0.895522" width="152.239" height="152.239" fill="#047E78" stroke="#F2F2F2" stroke-width="1.79104"/>
<path d="M11.1164 134.91V108.224H20.8239C22.6149 108.224 24.1911 108.558 25.5522 109.227C26.9373 109.872 28.0119 110.827 28.7761 112.092C29.5403 113.334 29.9224 114.827 29.9224 116.57C29.9224 118.29 29.5284 119.77 28.7403 121.012C27.9761 122.254 26.9134 123.209 25.5522 123.878C24.1911 124.546 22.6149 124.881 20.8239 124.881H15.3433V134.91H11.1164ZM15.3433 121.119H20.9314C21.8866 121.119 22.7224 120.928 23.4388 120.546C24.1552 120.164 24.7164 119.639 25.1224 118.97C25.5284 118.278 25.7314 117.466 25.7314 116.534C25.7314 115.603 25.5284 114.803 25.1224 114.134C24.7164 113.442 24.1552 112.916 23.4388 112.558C22.7224 112.176 21.8866 111.985 20.9314 111.985H15.3433V121.119ZM34.2741 134.91V108.224H38.5009V131.149H50.0353V134.91H34.2741ZM62.8782 135.34C60.8961 135.34 59.1289 134.922 57.5767 134.087C56.0483 133.251 54.8424 132.104 53.9588 130.648C53.0991 129.191 52.6692 127.531 52.6692 125.669V108.224H56.8961V125.49C56.8961 126.66 57.1468 127.698 57.6483 128.606C58.1737 129.513 58.8782 130.218 59.7618 130.719C60.6692 131.221 61.708 131.472 62.8782 131.472C64.0722 131.472 65.111 131.221 65.9946 130.719C66.9021 130.218 67.6065 129.513 68.108 128.606C68.6334 127.698 68.8961 126.66 68.8961 125.49V108.224H73.0871V125.669C73.0871 127.531 72.6573 129.191 71.7976 130.648C70.9379 132.104 69.7319 133.251 68.1797 134.087C66.6513 134.922 64.8841 135.34 62.8782 135.34ZM83.1139 134.91V111.985H76.0214V108.224H94.29V111.985H87.305V134.91H83.1139ZM109.333 135.34C107.399 135.34 105.596 134.994 103.924 134.301C102.276 133.609 100.82 132.642 99.554 131.4C98.3122 130.158 97.3331 128.701 96.6167 127.03C95.9242 125.358 95.5779 123.531 95.5779 121.549C95.5779 119.567 95.9242 117.74 96.6167 116.069C97.3331 114.373 98.3122 112.916 99.554 111.698C100.796 110.457 102.253 109.501 103.924 108.833C105.596 108.14 107.399 107.794 109.333 107.794C111.291 107.794 113.094 108.14 114.742 108.833C116.414 109.501 117.87 110.457 119.112 111.698C120.378 112.94 121.357 114.397 122.05 116.069C122.742 117.74 123.088 119.567 123.088 121.549C123.088 123.531 122.73 125.358 122.014 127.03C121.321 128.701 120.354 130.158 119.112 131.4C117.87 132.642 116.414 133.609 114.742 134.301C113.07 134.994 111.267 135.34 109.333 135.34ZM109.333 131.472C110.718 131.472 111.984 131.221 113.13 130.719C114.3 130.218 115.315 129.525 116.175 128.642C117.035 127.734 117.703 126.684 118.181 125.49C118.658 124.272 118.897 122.958 118.897 121.549C118.897 120.14 118.658 118.839 118.181 117.645C117.703 116.451 117.035 115.4 116.175 114.492C115.315 113.585 114.3 112.881 113.13 112.379C111.984 111.878 110.718 111.627 109.333 111.627C107.948 111.627 106.67 111.878 105.5 112.379C104.354 112.881 103.351 113.585 102.491 114.492C101.632 115.4 100.963 116.451 100.485 117.645C100.032 118.839 99.8048 120.14 99.8048 121.549C99.8048 122.958 100.032 124.272 100.485 125.49C100.963 126.684 101.632 127.734 102.491 128.642C103.351 129.525 104.366 130.218 105.536 130.719C106.706 131.221 107.972 131.472 109.333 131.472Z" fill="white"/>
</svg>
