<?xml version="1.0" encoding="utf-8"?>
<!-- Generator: Adobe Illustrator 25.2.0, SVG Export Plug-In . SVG Version: 6.00 Build 0)  -->
<svg version="1.1" id="Layer_1" width="50%" height="100" xmlns="http://www.w3.org/2000/svg" xmlns:xlink="http://www.w3.org/1999/xlink" x="0px" y="0px"
	 viewBox="0 0 2000 2000" style="enable-background:new 0 0 2000 2000;" xml:space="preserve">
<style type="text/css">
	.st0{fill:#FFFFFF;}
	.st1{fill:#373435;}
</style>
<g>
	<path class="st0" d="M1256.05,971.84c-0.18,3.99-0.48,6.93-0.42,9.88c0.73,34.13,1.46,68.26,2.31,102.39
		c0.24,9.57,3.88,13.59,13.61,14.33c7.2,0.55,14.48,0.11,22.46,0.11c0,6.14,0,11.43,0,16.96c-40.5,0-80.8,0-121.85,0
		c0-5.02,0-10.32,0-16.9c7.5,0,14.95,0.32,22.36-0.07c13.09-0.69,16.85-3.91,16.9-16.86c0.27-74.54,0.33-149.08,0.06-223.62
		c-0.05-14.34-2.92-16.49-17.49-17.95c-3.74-0.38-7.52-0.35-11.28-0.42c-3.45-0.07-6.91-0.01-10.76-0.01c0-6.05,0-11.18,0-16.16
		c40.88,0,81.22,0,122.08,0c0.22,1.31,0.6,2.71,0.66,4.13c0.51,11.82,0.49,11.77-11.28,12.09c-4.26,0.11-8.52,0.45-12.77,0.83
		c-10.03,0.89-13.43,3.31-13.67,13.31c-0.76,31.11-0.79,62.24-1.07,93.36c0,0.45,0.37,0.91,1.05,2.46c53.88,0,108.22,0,162.64,0
		c0.49-1.54,1.06-2.46,1.04-3.37c-0.79-30.6-1.41-61.21-2.61-91.79c-0.41-10.33-3.63-13.09-13.95-14.06
		c-7.97-0.75-16-0.83-24.61-1.24c0-5.19,0-10.28,0-15.99c32.86,0,65.73,0,98.6,0c-3.7-2.39-6.46-8.27-11.68-2.76
		c-1.22,1.29-4.81,0.42-7.31,0.41c-120.25-0.51-240.5-1.04-360.75-1.56c-3.48-0.02-6.95,0-10.49,0.98
		c22.98,4.92,45.96,9.84,68.6,14.68c-2.46,11.04-5.26,21.4-6.99,31.94c-1.74,10.59-2.44,21.36-3.66,32.66c-5.32,0-10.7,0-16.87,0
		c-0.57-10.46-0.92-20.93-1.87-31.36c-0.23-2.57-1.73-5.9-3.75-7.3c-41.44-28.86-111.7-27.2-150.34,3.38
		c-26.48,20.95-39.05,49.2-41.63,82.09c-2.92,37.24,3.96,72.3,28.42,101.76c28.2,33.97,65.13,49.19,109.07,46.82
		c21.06-1.14,42.1-3.34,61.44-12.8c7.6-3.72,14.73-8.38,22.12-12.64c5.97,2.73,5.75,6.33,3.84,12.53
		c-3.57,11.59-11.18,17-21.83,21.23c-55.76,22.15-111.57,24.2-166.69-0.72c-56.44-25.52-87.85-82.39-84.05-143.27
		c4.14-66.21,48.11-125.2,131.88-137.82c3.2-0.48,6.36-1.21,9.48-2.66c-182.14-0.79-364.27-1.57-546.73-2.36
		c-0.74-9.21-1.64-17.83-2.07-26.48c-0.62-12.52-0.64-25.08-1.41-37.59c-0.7-11.33-6.13-19.7-16.55-25.04
		c-22.85-11.72-46.97-18.9-72.56-20.6c-22.42-1.49-44.65-0.22-66.07,7.57c-46.61,16.94-71.26,62.62-58.9,110.33
		c8.75,33.78,32.82,50.54,65.85,55.36c32,4.67,64.22,7.83,96.24,12.34c17.1,2.41,34.31,5.11,50.9,9.72
		c38.58,10.73,60.57,37.86,66.88,76.34c10.36,63.14-15.03,112.12-64.34,150.06c-33.05,25.43-71.51,36.68-112.42,40.52
		c-53.68,5.04-105.43-3.81-155.89-22.08c-6.19-2.24-8.03-4.57-7.53-11.54c2.15-30.27,3.33-60.61,4.83-90.92
		c0.11-2.22,0.01-4.46,0.01-7.33c8.84,0,17.23,0,26.9,0c0,2.45-0.07,5.09,0.01,7.72c0.38,12.79,1.03,25.58,1.14,38.37
		c0.09,10.51,5.04,18.03,13.02,24.18c16.84,12.98,35.97,20.84,56.63,24.94c38.06,7.55,75.92,7.73,112.62-6.54
		c47.72-18.55,72.85-64.48,62.32-113.63c-7.21-33.61-30.09-51.41-62.61-56.63c-29.43-4.73-59.25-6.97-88.81-10.98
		c-18.6-2.52-37.37-5.02-55.49-9.73c-41.67-10.83-65.77-39.07-73.23-80.86c-8.52-47.78,0.79-91.43,34.49-128.01
		c25.9-28.1,58.91-43.07,96.03-49.02c62.37-10.01,122.36-0.63,180.33,23.73c4.16,1.75,5.77,3.37,4.49,8.26
		c-7.11,27.13-8.25,54.98-9.56,82.81c-0.3,6.27,2.59,6.84,7.62,6.84c50.46,0.01,100.92,0.13,151.38,0.35
		c257.32,1.08,514.64,2.21,771.96,3.31c3.2,0.01,6.41,0,8.94,0c-7.96-8.77-15.9-17.58-23.98-26.26c-0.62-0.67-2.34-0.65-3.47-0.47
		c-10.02,1.54-18.96-1.8-27.23-6.7c-23.5-13.92-43.19-31.68-56.06-56.34c-1.68-3.22-5.12-6.21-8.46-7.78
		c-29.89-14.03-52.08-36.25-68.98-64.14c-6.76-11.16-10.48-23.26-9.3-36.88c-3.73-0.94-7.1-1.63-10.36-2.65
		c-17.94-5.59-25.78-16.8-24.3-35.56c0.43-5.5-0.33-9.01-5.57-12.25c-12.86-7.94-15.68-19.36-10.69-39.26
		c-3.5-1.92-7.24-3.8-10.82-5.96c-7.43-4.49-12.82-14.16-11.63-20.54c1.37-7.35,8.09-12.81,18.08-14.71
		c8.86-1.68,22.91,0.57,31.05,4.96c-6.55,2.03-13.41,3.38-19.57,6.24c-9.28,4.3-10.17,12.31-2.32,18.99
		c4.14,3.53,9.15,6.04,14.38,9.41c-6.98,5.88-12.27,12.62-10.28,22.4c1.86,9.16,7.34,15.14,16.21,17.69
		c-3.33,28.44,1.96,35.77,33.26,46.03c-1.95,15.94,6.13,28.8,14.45,41.26c17.38,26.03,38.19,48.46,67.73,61.18
		c2.05,0.88,3.77,3.15,5.03,5.16c13.43,21.58,32.09,37.69,53.28,51.15c1.88,1.2,4.06,1.96,6.14,2.81c5.72,2.34,9.69,1.03,11.06-6.29
		c5.21,6.14,9.73,12.11,14.93,17.42c8.06,8.24,16.01,16.78,25.08,23.81c9.06,7.02,18.99,13.31,29.35,18.2
		c18.28,8.62,35.68,5.71,51.82-8.23c3.23,7.34,8.41,5.92,13.82,3.59c6.59-2.84,13.21-5.58,20.12-7.68
		c-15.59,19.09-35.15,29.72-60.82,27.96c-0.34,3.66-0.63,6.78-1.07,11.49c-8.6,0-17.08-0.47-25.48,0.11
		c-11.67,0.81-14.48,3.57-14.72,15.5c-0.65,32.38-0.82,64.76-1.12,97.15c-0.1,10.76-0.02,21.53,1.44,33
		c1.31-2.14,2.67-4.24,3.91-6.42c14.98-26.39,29.57-53.01,45.09-79.08c6.24-10.49,13.04-21.59,22.3-29.06
		c8.65-6.99,11.49-14.72,13.99-24.46c2.46-9.6,7.13-18.68,11.27-27.79c1.56-3.44,4.35-6.33,7.71-8.91
		c-9.41,21.33-20.98,41.75-21.78,65.79c-6.82-1.48-10.49,2.78-13.57,7.21c-11.3,16.27-22.81,32.43-33.35,49.19
		c-14.78,23.5-28.77,47.5-43.79,72.43c2.87-0.81,4.37-1.24,6.77-1.92c0,4.44-0.07,8.36,0.01,12.28c0.45,21.59,0.73,43.18,1.48,64.75
		c0.53,15.31,3.8,18.3,18.97,18.68c6.75,0.17,13.5,0.03,20.84,0.03c0,5.87,0,11.2,0,16.73c-41.58,0-83.08,0-125,0
		c0-5.16,0-10.34,0-16.8c7.44,0,14.88,0.2,22.3-0.04c12.46-0.4,16.05-2.88,16.61-15.44c1.38-31.33,1.92-62.69,2.51-94.05
		c0.32-17.19,0.06-17.38-17.39-17.4c-45.69-0.06-91.37,0.04-137.06,0.08C1263.05,971.84,1259.86,971.84,1256.05,971.84z"/>
	<path class="st0" d="M704.28,824.67c29.07,0.53,53.02,3.01,75.51,12.61c49.67,21.2,76.38,59.36,80.81,112.84
		c5.22,63.02-17.64,113.49-69.99,149.51c-31.61,21.75-67.49,28.48-105.27,26.61c-29.71-1.47-57.46-9.22-81.26-27.76
		c-32.76-25.52-48.95-60.24-53.78-100.7c-3.41-28.56-1.42-56.84,9.91-83.52c21.61-50.88,61.65-78.09,115.2-86.75
		C686.53,825.71,697.86,825.28,704.28,824.67z M813.74,979.84c0-6.02,0.38-12.08-0.07-18.06c-1.36-18.13-5.05-35.76-12.83-52.31
		c-21.32-45.36-58.31-63.89-107.04-62.82c-45.01,0.99-79.84,25.88-92.69,68.99c-12.29,41.23-8.41,82.13,8.62,121.32
		c20.35,46.82,57.48,69.78,108.48,67.55c33.62-1.48,59.96-16.45,77.41-45.85C810.06,1034.32,814.33,1007.6,813.74,979.84z"/>
	<path class="st0" d="M1426.1,1225.73c4.79-3.56,8.98-6.68,14.18-10.55c3.61,6.05,6.98,11.75,10.42,17.42
		c4.75,7.83,11.98,10.56,21.25,8.09c6.92-1.84,10.5-6.92,10.72-16.14c0.23-9.72,0.05-19.44,0.05-29.56c-26.31,0-51.82,0-78.19,0
		c0,41.88,0,83.67,0,126.14c-6.41,0-11.96,0-18.45,0c0-41.95,0-83.73,0-126.03c-11.07,0-21.23,0-32.64,0c0,2.96,0,5.86,0,8.77
		c0,35.66,0,71.31,0,106.97c0,11.16-0.01,11.18-10.87,10.97c-1.98-0.04-3.95-0.27-6.77-0.48c0-19.46,0-38.67,0-58.64
		c-8.17,0-15.49,0-23.15,0c0.28,2.42,0.75,5.07,0.87,7.74c1.77,38.34-31.11,45.43-53.18,36.4c-5.7-2.33-11.54-5.65-15.73-10.03
		c-9.31-9.75-18.21-20.03-26.16-30.91c-6.5-8.9-5.53-10.6,3.47-16.43c1.85-1.2,3.78-2.27,5.98-3.59
		c5.51,8.78,10.44,17.47,16.22,25.56c4.34,6.07,9.27,11.94,14.84,16.87c8.76,7.75,19.21,9.12,26.33,4.66
		c7.48-4.68,12.31-16.98,10.15-25.88c-2.5-10.31-10.93-17.17-22.31-18.06c-2.25-0.18-4.53-0.22-6.77-0.07
		c-11.82,0.8-11.82,0.83-15.85-12.15c3.01-0.27,5.86-0.5,8.7-0.77c13.74-1.33,24.58-11.28,24.87-22.82
		c0.37-14.34-10.66-22.57-24.03-17.18c-5.65,2.28-10.69,6.38-15.54,10.24c-2.86,2.28-4.81,5.71-7.17,8.62
		c-5.39-4.27-9.49-7.53-13.5-10.71c9.27-21.73,45.06-31.9,63.52-18.4c16.63,12.16,18.02,32.56,3.22,51.72
		c12.19,7.9,24.52,14.81,39.71,9.58c2.07-0.71,4.94-3.28,4.99-5.05c0.39-15.49,0.23-31,0.23-47.18c-8.68,0-16.62,0-25.18,0
		c0-5.24,0-9.8,0-15.09c3.32-0.15,6.5-0.42,9.68-0.43c56.95-0.03,113.9-0.02,170.86-0.02c29.1,0,58.21-0.11,87.31,0.14
		c3.55,0.03,7.05,2.08,10.65,2.89c1.3,0.29,2.8-0.34,4.22-0.51c5.91-0.72,11.87-2.25,17.74-1.95c12.81,0.66,20.87,8.32,22.57,21.03
		c0.83,6.18,0.59,12.51,0.69,18.78c0.1,6.01,0.02,12.02,0.02,18.6c11.13,0,21.79,0,33.07,0c0-14.09,0-28.25,0-43.33
		c-8.34,0-16.71,0-25.59,0c0-5.54,0-10.19,0-16.21c3.53,0,7.16-0.03,10.8,0.01c15.81,0.17,31.61,0.43,47.42,0.54
		c13.66,0.09,13.71,0.09,11.44,15.02c-7.94,0-16.08,0-25.06,0c0,42.72,0,84.51,0,126.91c-6.24,0-11.62,0-18.18,0
		c0-21.74,0-43.63,0-65.93c-11.8,0-22.43,0-33.89,0c0,6.91,0.07,13.37-0.02,19.83c-0.11,8.03-5.13,11.37-11.67,6.64
		c-7.43-5.37-14.63-11.63-20.2-18.84c-5.7-7.38-11.74-10.53-20.91-9.48c-6.63,0.75-13.41,0.15-21.08,0.15
		c0,6.04,0.32,11.26-0.12,16.42c-0.25,3-1.23,8.08-2.73,8.42c-3.54,0.79-9.03,0.69-11.17-1.52c-7.41-7.67-14.56-15.87-20.18-24.89
		c-4.43-7.1-0.87-12.36,7.49-13.87c2.43-0.44,4.94-0.46,8.08-0.74c0-14.05,0-27.91,0-42.3c-13.04,0-25.97,0-40.25,0
		c0,6.34,0,12.73,0,19.11c0,31.17-4.32,36.53-34.91,42.45c11.78,20.18,26.8,37.39,42.89,53.51c-0.31,0.84-0.35,1.42-0.66,1.73
		c-12.41,12.47-12.84,12.49-24.57-0.94C1461.48,1285.14,1442.87,1256.64,1426.1,1225.73z M1615.38,1238.09
		c0-10.46-0.11-20.95,0.05-31.43c0.08-5.13-0.64-10.33-6.06-11.55c-3.68-0.83-9.51-0.26-11.63,2.13c-2.66,2.99-3.12,8.45-3.34,12.9
		c-0.13,2.68,1.98,5.47,3.13,8.32c-18.7,1.39-22.37,3.46-19.22-23.3c-5.89,0-11.73,0-17.43,0c0,14.45,0,28.33,0,42.93
		C1579.26,1238.09,1596.93,1238.09,1615.38,1238.09z"/>
	<path class="st0" d="M711.64,1194.91c0,42.46,0,84.04,0,126.27c-6.07,0-11.42,0-17.64,0c0-19.27,0-38.48,0-58.48
		c-8.13,0-15.44,0-23.14,0c0,6.33,0.83,13.12-0.16,19.63c-2.57,16.85-15.23,27.33-32.26,27.92c-12.32,0.42-23.93-2.48-32.65-11.05
		c-10.48-10.3-20.22-21.52-29.08-33.25c-6.72-8.89-5.62-10.63,3.98-16.85c1.64-1.06,3.36-2.02,5.44-3.26
		c5.32,8.54,10.05,17.05,15.69,24.92c4.49,6.27,9.54,12.35,15.27,17.48c8.71,7.79,19.15,9.18,26.3,4.75
		c7.53-4.67,12.41-16.94,10.26-25.82c-2.51-10.36-10.86-17.22-22.23-18.15c-2.25-0.18-4.52-0.22-6.77-0.08
		c-11.82,0.75-11.82,0.78-16.09-12.28c2.83-0.2,5.41-0.29,7.97-0.58c10.89-1.23,19.99-5.64,24.35-16.23
		c2.9-7.05,2.61-14.67-3.02-20.43c-5.62-5.75-13.4-6.91-20.18-3.15c-8.41,4.67-15.89,11.02-24.27,16.99
		c-3.35-2.73-7.57-6.17-11.71-9.54c9.69-16.86,35.37-27.97,52.98-23.34c23.06,6.07,32.35,34.89,17.11,53.13
		c-0.94,1.13-1.98,2.18-3.4,3.73c12.48,8.1,24.74,15.03,39.94,9.87c2.09-0.71,5.05-3.2,5.09-4.94c0.4-15.51,0.23-31.03,0.23-47.47
		c-8.71,0-16.84,0-25.36,0c0-5.31,0-9.7,0-15.03c62.3,0,124.37,0,187.1,0c0,4.84,0,9.42,0,14.87c-7.8,0-15.44,0-23.8,0
		c0,42.65,0,84.44,0,125.82c-1.16,0.67-1.55,1.08-1.98,1.12c-16.53,1.46-16.53,1.45-16.53-14.78c0-21.59,0-43.17,0-64.76
		c0-2.96,0-5.92,0-9.42c-17.89,0-34.9-0.35-51.89,0.16c-7.49,0.23-12.22,5.45-12.08,12.89c0.14,7.41,0.25,15.61,3.37,22
		c5.88,12.03,13.52,23.28,21.28,34.24c2.57,3.62,7.79,5.37,12.18,8.22c0.35-0.77,0.21,0.04-0.27,0.51
		c-14,13.72-9.89,15.95-25.78-0.14c-10.68-10.81-20.14-22.84-24.55-37.42c-3.05-10.08-4.58-21.1-4.2-31.61
		c0.55-15.08,11.15-24.06,26.34-24.3c18.05-0.28,36.1-0.07,54.87-0.07c0-7.63,0-14.69,0-22.09
		C778.98,1194.91,745.91,1194.91,711.64,1194.91z"/>
	<path class="st0" d="M1043.45,1303.13c-6.24-5.03-10.32-8.32-15.15-12.23c1.78-1.05,3.79-1.52,4.34-2.68
		c2.13-4.5,5.55-9.4,5.08-13.79c-0.38-3.52-5.33-8.77-8.86-9.32c-9.24-1.43-18.96-1.79-28.22-0.56
		c-10.04,1.33-16.38,8.35-18.23,18.56c-1.61,8.87,2.63,16.68,12.54,21.87c14.84,7.78,31,11.03,47.59,12.38
		c-3.05,13.7-7,16.88-20.18,13.37c-12.29-3.27-24.46-7.42-36.07-12.57c-6.16-2.73-11.88-7.67-16.3-12.88
		c-9.42-11.09-9.26-25.04-0.62-36.76c2.37-3.21,5.22-6.06,6.96-8.07c-5.1-9.96-10.82-19.04-14.5-28.89
		c-3.8-10.17,1.35-17.1,12.45-17.99c8.73-0.7,17.55-0.25,26.33-0.29c8.78-0.05,17.56-0.07,26.35-0.13c0.47,0,0.94-0.24,2.03-0.54
		c0-5.45,0-11.07,0-17.8c-28.15,0-56.55,0-85.34,0c0-5.48,0-9.88,0-15.36c21.39,0,42.53,0,64.99,0c-7.06-13.64-6.73-26.12-0.98-38.6
		c8.49-18.47,27.04-25,45.08-15.59c13.3,6.93,23.73,17.27,30.44,30.42c8.22,16.1,17.56,28.82,38.42,23.92
		c0.38-0.09,0.89,0.35,1.86,0.77c0.13,1.93,0.33,4.11,0.4,6.3c0.07,2.24,0.02,4.49,0.02,7.72c-7.49,0-14.6,0-22.49,0
		c0,42.76,0,84.54,0,126.87c-6.18,0-11.57,0-18.16,0c0-41.95,0-83.92,0-126.28c-12.1,0-23.02,0-34.77,0c0,10.92,0,21.58,0,33.53
		c-23.15,0-45.51,0-68.55,0c0.62,10.16,7.19,15.36,12.1,21.35c0.73,0.89,3.74,0.2,5.61-0.18c13.5-2.76,26.96-3.18,40.06,1.6
		c15.25,5.56,22.64,17.99,18.21,33.21C1053.97,1291.08,1048.03,1296.5,1043.45,1303.13z M1080.75,1179.26
		c-3.97-5.92-6.38-10.55-9.75-14.33c-7.98-8.93-15.68-18.35-24.89-25.86c-8.56-6.99-17.88-3.15-22.37,7.05
		c-5.13,11.67-0.07,21.47,5.53,31.12c0.67,1.16,2.97,1.91,4.53,1.93C1048.74,1179.32,1063.67,1179.26,1080.75,1179.26z"/>
	<path class="st0" d="M716.84,1152.42c-7.27,0-14.16,0-21.54,0c0-6.85,0-13.45,0-20.48c7.22,0,14.11,0,21.54,0
		C716.84,1138.62,716.84,1145.03,716.84,1152.42z"/>
	<path class="st0" d="M1736.92,598.87c-1.45,0.05-3.08-0.47-4.9-1.73c-1.77-1.31-1.87-7.74-0.33-10.36
		c0.89-1.49,2.29-2.19,4.01-2.05c-1.49,0-2.8,0.65-3.59,2.05c-1.54,2.61-1.45,9.05,0.33,10.36
		C1734.07,598.31,1735.56,598.82,1736.92,598.87z"/>
	<path class="st0" d="M1780.87,592.15c5.88,0.75,12.83,1.68,19.74,2.57c-9.19-5.37-18.2-11.38-30.79-10.12
		c-1.54-1.68-3.92-4.57-6.58-7.18c-18.29-17.87-43.9-14.88-56.59,7.37c-4.9,8.54-7.46,18.52-10.78,27.95
		c-3.17,8.96-5.37,18.29-9.05,27.01c-2.43,5.65-6.77,10.5-11.06,16.94c4.99-14.14,9.7-26.45,13.58-38.96
		c1.07-3.5,0.98-8.44-0.79-11.48c-18.85-33.12-37.93-66.11-57.57-98.77c-4.85-8.07-11.48-15.26-18.24-21.88
		c-10.17-9.98-19.13-7.7-22.07,6.39c-2.61,12.41-2.8,25.33-3.59,38.07c-0.47,7.7-0.09,15.49-0.33,23.23
		c-2.19-23.47-4.06-46.93-6.67-70.31c-3.13-28.04-10.5-54.68-28.41-77.31c-2.66-3.36-5.46-6.67-8.68-9.38
		c-1.87-1.59-4.76-2.05-7.23-2.99c-0.7,2.75-2.47,5.69-1.96,8.21c1.59,7.84,3.87,15.54,6.11,23.19c1.49,5.04,3.5,9.89,5.46,15.49
		c-1.4,0-2.33,0.14-3.13,0c-12.5-2.61-18.01,2.01-15.63,14.51c1.45,7.46,5.27,14.42,7.79,21.74c0.79,2.38,1.91,5.6,0.93,7.46
		c-5.88,11.1-3.87,21.88,0.61,32.61c1.77,4.15,3.69,8.3,6.11,12.08c3.03,4.67,2.94,8.12,0,13.34c-2.47,4.43-3.55,11.94-1.45,16.24
		c4.85,9.94,11.8,18.9,18.24,27.99c1.63,2.29,14.79,15.07,18.8,19.69c31.03,14.28,60.23,31.87,87.57,52.58
		c1.77,1.35,3.5,2.85,5.18,4.34c0.28,0.19,0.28,0.7,0.75,2.05c-3.87-2.1-7.09-3.87-10.31-5.6c-45.44-24.54-90.6-49.69-139.78-66.3
		c-17.4-5.88-35.08-11.1-53.7-8.96c-20.71,2.38-31.21,14.09-32.01,34.99c-0.75,19.92,4.25,38.91,11.52,57.11
		c8.63,21.6,18.57,42.74,27.95,64.06c0.84,1.96,1.68,3.92,2.01,6.07c-15.16-19.92-26.5-41.94-35.36-65.08
		c-8.68-22.72-15.35-46.14-24.17-68.77c-5.6-14.37-12.64-28.37-20.67-41.57c-7.18-11.85-18.8-18.57-32.43-22.81
		c-29.63-9.24-59.11-18.99-88.18-29.86c-11.8-4.43-22.63-11.8-33.36-18.66c-5.74-3.64-10.45-8.82-11.43-16.98
		c-19.87-12.83-23.89-1.07-29.53,1.54c-9.28,4.34-10.17,12.32-2.33,18.99c4.15,3.55,9.14,6.07,14.42,9.42
		c-7,5.88-12.27,12.64-10.31,22.39c1.87,9.19,7.37,15.16,16.24,17.68c-3.36,28.46,1.96,35.78,33.26,46.05
		c-1.96,15.91,6.11,28.79,14.42,41.24c17.4,26.03,38.21,48.47,67.74,61.21c2.05,0.84,3.78,3.13,5.04,5.13
		c13.44,21.6,32.1,37.7,53.28,51.18c1.87,1.17,4.06,1.96,6.11,2.8c5.74,2.33,9.7,1.03,11.06-6.3c5.23,6.11,9.75,12.13,14.98,17.4
		c8.02,8.26,16,16.8,25.05,23.84c9.05,7,18.99,13.3,29.35,18.2c18.29,8.58,35.69,5.69,51.83-8.26c3.22,7.37,8.4,5.92,13.81,3.59
		c3.64-1.54,7.28-3.08,11.01-4.53c0.79-0.28,1.63-0.61,2.47-0.93c2.19-0.79,4.39-1.54,6.62-2.19c-0.33,0.42,2.8,5.51,1.59,11.43
		c-9.19,20.62-20.06,40.54-20.85,63.82c-6.81-1.45-10.5,2.8-13.58,7.23c-11.29,16.28-22.81,32.43-33.36,49.17
		c-14.79,23.51-28.79,47.49-43.81,72.46c2.71-0.79,4.2-1.21,6.39-1.82c19.31-20.29,49.31-49.69,67.23-68.82
		c-0.42,2.57-0.89,5.51-1.35,8.44c0.75,0.37,1.49,0.75,2.24,1.07c7.74-12.27,15.49-24.54,23.7-37.65
		c-0.79,5.97-1.45,10.96-2.1,15.91c0.98,0.47,2.01,0.93,3.03,1.4c5.41-7.46,10.87-14.93,14.98-20.57c3.41-0.37,6.39,0.23,7.56-0.98
		c4.81-5.04,9.84-10.22,13.39-16.14c5.41-9.1,13.34-13.67,23-16.89c16.38-5.41,32.71-11.06,48.71-17.54
		c17.82-7.18,32.66-18.8,43.67-34.62c11.9-17.08,23.14-34.62,34.57-51.97c1.49-2.29,2.66-4.85,3.73-7.37
		c4.15-9.56,1.03-14.42-9.52-14.32c-4.43,0.05-8.82,0.7-13.62-0.05c5.6-3.03,11.24-6.07,16.84-9.19
		c11.34-6.34,20.57-14.74,27.67-25.89c10.22-16.19,6.72-33.31,4.95-50.48c-1.49-14.18-2.75-28.41-3.78-42.64
		c-0.28-3.92,0.84-7.88,1.12-10.31c4.39,0,7.98,0.37,11.48-0.05c2.01-0.28,4.06-0.51,6.07-0.84c0.14,0,0.23,0,0.37-0.05
		c2.33-0.51,5.27-1.03,8.35-1.54c3.92-0.7,7.93-1.45,10.82-2.1C1796.87,597.38,1788.56,594.67,1780.87,592.15z M1732.44,597.14
		c-1.77-1.31-1.87-7.74-0.33-10.36c0.79-1.4,2.1-2.05,3.59-2.05c3.08,0.09,7.19,2.57,11.15,7c-3.13,2.94-6.02,7-9.94,7.14
		C1735.56,598.82,1734.07,598.31,1732.44,597.14z"/>
	<path class="st1" d="M1747.32,591.73c-3.22,3.03-6.25,7.23-10.4,7.14c3.92-0.14,6.81-4.2,9.94-7.14c-3.97-4.43-8.07-6.9-11.15-7
		C1738.83,584.55,1743.12,587.11,1747.32,591.73z"/>
</g>
</svg>
